<svg id="Layer_1" data-name="Layer 1" xmlns="http://www.w3.org/2000/svg" xmlns:xlink="http://www.w3.org/1999/xlink" viewBox="0 0 600 322"><defs><style>.cls-1{fill:url(#linear-gradient);}.cls-2{fill:#feb50c;}.cls-3{fill:none;stroke:#ffa508;stroke-linejoin:round;stroke-width:0.54px;}</style><linearGradient id="linear-gradient" x1="69.38" y1="697.27" x2="530.14" y2="236.51" gradientTransform="matrix(1, 0, 0, -1, 0, 627.89)" gradientUnits="userSpaceOnUse"><stop offset="0" stop-color="#feb50c"/><stop offset="1" stop-color="#ffd51b"/></linearGradient></defs><title>bg</title><g id="Layer_2" data-name="Layer 2"><polyline class="cls-1" points="0 322 0 0 599.52 0 599.52 322"/></g><circle class="cls-2" cx="559.74" cy="114.9" r="5.32"/><circle class="cls-2" cx="544.67" cy="137.06" r="5.32"/><circle class="cls-2" cx="571.73" cy="174.47" r="5.32"/><circle class="cls-2" cx="563.04" cy="216.69" r="5.32"/><circle class="cls-2" cx="548.24" cy="227.33" r="5.32"/><circle class="cls-2" cx="525.88" cy="229.54" r="5.32"/><circle class="cls-2" cx="496.64" cy="235.31" r="5.32"/><circle class="cls-2" cx="458.8" cy="220.81" r="5.32"/><circle class="cls-2" cx="416.68" cy="253.5" r="5.32"/><circle class="cls-2" cx="419.64" cy="272.26" r="5.32"/><circle class="cls-2" cx="466.14" cy="273.93" r="5.32"/><circle class="cls-2" cx="494.1" cy="306.56" r="5.32"/><circle class="cls-2" cx="535.4" cy="297.26" r="5.32"/><circle class="cls-2" cx="507.29" cy="266.81" r="5.32"/><circle class="cls-2" cx="548.88" cy="256.84" r="5.32"/><circle class="cls-2" cx="571.71" cy="291.94" r="5.32"/><circle class="cls-2" cx="571.3" cy="142.93" r="2.94"/><circle class="cls-2" cx="536.41" cy="160.05" r="3.27"/><circle class="cls-2" cx="509.32" cy="154.24" r="3.27"/><circle class="cls-2" cx="527.67" cy="207.58" r="3.27"/><circle class="cls-2" cx="587.34" cy="254.13" r="3.27"/><circle class="cls-2" cx="596.73" cy="293.34" r="3.27"/><circle class="cls-2" cx="485.28" cy="239.45" r="3.27"/><circle class="cls-2" cx="423.84" cy="209.98" r="3.27"/><circle class="cls-2" cx="441.15" cy="255.08" r="3.27"/><circle class="cls-2" cx="432.82" cy="292.89" r="3.27"/><circle class="cls-2" cx="341.66" cy="268.61" r="3.27"/><circle class="cls-2" cx="306.23" cy="273.49" r="3.27"/><circle class="cls-2" cx="378.98" cy="256.24" r="3.27"/><circle class="cls-2" cx="285.82" cy="285.23" r="3.27"/><circle class="cls-2" cx="287.28" cy="302.26" r="3.27"/><circle class="cls-2" cx="374.77" cy="287.28" r="5.32"/><path class="cls-2" d="M398.55,322a5.32,5.32,0,1,1,8.55,0"/><circle class="cls-2" cx="352.25" cy="246.49" r="5.32"/><circle class="cls-2" cx="307" cy="297.92" r="5.32"/><circle class="cls-2" cx="282.54" cy="312.85" r="5.32"/><circle class="cls-2" cx="450.23" cy="288.66" r="6.4"/><circle class="cls-2" cx="505.82" cy="210.85" r="6.4"/><circle class="cls-2" cx="505.82" cy="192.47" r="5.32"/><circle class="cls-2" cx="464.09" cy="305.84" r="3.27"/><path class="cls-2" d="M288.81,322a3.27,3.27,0,0,1,6.54,0"/><polyline class="cls-3" points="599.52 100.78 559.74 114.9 544.67 137.06 571.73 174.47 599.52 182.62"/><polyline class="cls-3" points="471.81 322 464.09 305.84 466.14 273.93 450.23 288.66 432.83 292.89 419.64 272.26 416.68 253.5 441.15 255.08 458.8 220.81 509.32 154.24 505.82 192.47 571.73 174.47 527.75 207.84 536.41 160.05 571.3 142.93 599.52 141.97"/><polyline class="cls-3" points="547.89 322 494.1 306.56 507.29 266.81 535.4 297.26 505.09 322"/><polyline class="cls-3" points="599.52 230 563.04 216.69 571.71 291.94 596.73 293.34 599.52 287.45"/><polyline class="cls-3" points="363.67 322 374.77 287.28 378.98 256.24 423.84 209.98 458.8 220.81 485.2 239.92 496.64 235.31 505.82 210.85 525.88 229.54 548.24 227.33 548.88 256.84 587.35 254.13 599.46 257.4"/><polyline class="cls-3" points="327.11 322 341.66 268.61 285.82 285.23 287.28 302.26 306.23 273.49 352.25 246.49 374.77 287.28 402.82 318.84 408.8 322"/><polyline class="cls-3" points="255.94 303.06 282.55 312.85 307 297.92 292.08 322"/><polyline class="cls-3" points="282.17 322 282.55 312.85 286.04 322"/></svg>