<?xml version="1.0" standalone="no"?>
<!DOCTYPE svg PUBLIC "-//W3C//DTD SVG 20010904//EN"
 "http://www.w3.org/TR/2001/REC-SVG-20010904/DTD/svg10.dtd">
<svg version="1.0" xmlns="http://www.w3.org/2000/svg"
 width="693.000000pt" height="444.000000pt" viewBox="0 0 693.000000 444.000000"
 preserveAspectRatio="xMidYMid meet">

<g transform="translate(0.000000,444.000000) scale(0.100000,-0.100000)"
fill="#000000" stroke="none">
<path d="M0 2220 l0 -2220 3465 0 3465 0 0 2220 0 2220 -1710 0 c-1303 0
-1715 -3 -1735 -12 -21 -9 -31 -9 -46 0 -14 9 -421 12 -1729 12 l-1710 0 0
-2220z m2710 1878 c4 -4 145 -9 315 -11 171 -1 76 -2 -210 -2 -286 -1 -452 1
-368 2 126 3 151 6 147 18 -4 10 1 12 18 8 18 -4 20 -3 8 6 -13 9 -13 11 3 11
9 0 17 -6 17 -12 0 -7 5 -5 11 5 10 18 12 18 32 0 12 -10 24 -21 27 -25z m0
32 c0 -5 -5 -10 -11 -10 -5 0 -7 5 -4 10 3 6 8 10 11 10 2 0 4 -4 4 -10z
m-853 -46 c-3 -3 -12 -4 -19 -1 -8 3 -5 6 6 6 11 1 17 -2 13 -5z m96 -1 c-13
-2 -35 -2 -50 0 -16 2 -5 4 22 4 28 0 40 -2 28 -4z m85 0 c-10 -2 -28 -2 -40
0 -13 2 -5 4 17 4 22 1 32 -1 23 -4z m95 0 c-13 -2 -35 -2 -50 0 -16 2 -5 4
22 4 28 0 40 -2 28 -4z m105 0 c-16 -2 -40 -2 -55 0 -16 2 -3 4 27 4 30 0 43
-2 28 -4z m1280 0 c-27 -2 -69 -2 -95 0 -27 2 -5 3 47 3 52 0 74 -1 48 -3z
m500 0 c-16 -2 -40 -2 -55 0 -16 2 -3 4 27 4 30 0 43 -2 28 -4z m-1147 -105
l18 -23 1 23 c0 15 6 22 20 22 11 0 20 -7 20 -15 0 -8 1 -15 3 -15 1 -1 20 -3
42 -6 22 -4 42 -8 44 -10 2 -2 -119 -3 -270 -3 -151 1 -264 4 -251 6 12 2 22
9 22 15 0 6 7 5 17 -3 15 -13 16 -12 11 9 l-6 22 155 0 c148 0 156 -1 174 -22z
m122 5 c-7 -2 -21 -2 -30 0 -10 3 -4 5 12 5 17 0 24 -2 18 -5z m-555 -30 c-21
-2 -57 -2 -80 0 -24 2 -7 4 37 4 44 0 63 -2 43 -4z m1110 0 c-10 -2 -28 -2
-40 0 -13 2 -5 4 17 4 22 1 32 -1 23 -4z m-1630 -40 c-15 -2 -42 -2 -60 0 -18
2 -6 4 27 4 33 0 48 -2 33 -4z m1155 -13 c-6 -23 -23 -27 -23 -5 0 8 -9 15
-20 15 -12 0 -20 -7 -20 -17 0 -15 -2 -16 -10 -3 -7 11 -10 11 -10 2 0 -7 10
-16 22 -21 20 -7 20 -8 2 -13 -10 -2 -105 -6 -210 -7 -176 -2 -192 -1 -198 16
-5 11 -10 13 -14 7 -8 -13 -245 -24 -282 -13 -23 6 -22 7 8 8 18 1 43 6 55 12
16 9 22 9 25 0 2 -7 32 -11 85 -10 45 1 71 4 58 6 -19 4 -21 7 -10 14 10 6 7
9 -13 9 -16 0 -28 -6 -29 -12 0 -9 -2 -9 -6 1 -4 9 -7 10 -13 2 -5 -9 -14 -9
-34 -1 -15 5 -48 10 -74 10 -26 0 -54 5 -62 10 -10 6 122 10 382 10 391 0 396
0 391 -20z m481 9 c-3 -6 -15 -9 -25 -6 -11 3 -19 1 -19 -3 0 -5 -8 -7 -17 -5
-10 2 -18 4 -18 5 0 1 -24 3 -53 5 -93 5 -69 15 37 15 71 0 100 -3 95 -11z
m-381 -6 c-7 -2 -21 -2 -30 0 -10 3 -4 5 12 5 17 0 24 -2 18 -5z m-60 -40
c-13 -2 -35 -2 -50 0 -16 2 -5 4 22 4 28 0 40 -2 28 -4z m400 0 c-7 -2 -21 -2
-30 0 -10 3 -4 5 12 5 17 0 24 -2 18 -5z m-1120 -50 c-13 -2 -35 -2 -50 0 -16
2 -5 4 22 4 28 0 40 -2 28 -4z m100 0 c-7 -2 -19 -2 -25 0 -7 3 -2 5 12 5 14
0 19 -2 13 -5z m54 1 c-3 -3 -12 -4 -19 -1 -8 3 -5 6 6 6 11 1 17 -2 13 -5z
m236 -1 c-29 -2 -78 -2 -110 0 -32 2 -8 3 52 3 61 0 87 -1 58 -3z m205 0 c-26
-2 -71 -2 -100 0 -29 2 -8 3 47 3 55 0 79 -1 53 -3z m85 0 c-7 -2 -19 -2 -25
0 -7 3 -2 5 12 5 14 0 19 -2 13 -5z m424 1 c-3 -3 -12 -4 -19 -1 -8 3 -5 6 6
6 11 1 17 -2 13 -5z m50 0 c-3 -3 -12 -4 -19 -1 -8 3 -5 6 6 6 11 1 17 -2 13
-5z m-349 -173 c3 -8 9 -8 23 -1 15 8 25 7 44 -7 22 -17 37 -41 16 -29 -11 7
-26 -11 -35 -41 -5 -17 -3 -23 8 -23 21 0 31 -21 15 -31 -9 -5 -23 1 -41 18
-16 15 -28 23 -28 19 0 -5 15 -23 34 -41 23 -21 31 -36 25 -42 -6 -6 -4 -14 6
-23 23 -19 29 -5 12 29 -15 30 -15 31 8 25 17 -4 26 0 35 16 9 16 15 19 23 11
16 -16 31 -14 57 9 13 11 28 20 34 19 6 0 1 -7 -11 -16 -13 -8 -23 -22 -23
-29 0 -17 12 -18 29 -1 11 10 14 10 18 0 8 -23 33 -15 30 10 -1 13 3 21 11 20
6 -2 12 3 12 10 0 23 -25 67 -37 67 -7 0 -13 5 -13 10 0 6 7 10 16 10 8 0 12
5 9 10 -4 6 10 10 35 10 l40 0 0 -107 c0 -60 0 -147 0 -195 0 -48 5 -90 10
-93 6 -3 10 3 10 14 0 13 7 21 18 22 16 1 16 2 0 6 -20 5 -26 63 -7 63 5 0 8
4 4 9 -3 5 -1 12 5 16 5 3 10 4 10 1 0 -2 3 -11 6 -19 3 -10 -1 -17 -12 -19
-16 -3 -16 -5 -2 -18 8 -9 19 -26 22 -38 4 -12 11 -20 16 -17 5 3 16 -2 24
-11 15 -14 17 -14 22 1 4 9 2 21 -5 28 -13 13 -15 31 -2 22 5 -3 12 -1 16 5 3
5 -3 10 -14 10 -12 0 -21 -5 -21 -11 0 -5 -4 -8 -9 -5 -5 4 -12 0 -14 -6 -3
-7 -6 -8 -6 -2 -1 5 8 20 19 32 12 12 22 36 23 52 2 26 17 45 17 21 0 -5 7
-17 16 -26 15 -15 15 -17 -5 -22 -22 -6 -22 -6 -2 -24 26 -25 37 -24 46 4 6
18 8 19 12 5 2 -10 10 -15 19 -11 10 4 14 -3 15 -23 1 -24 2 -25 6 -6 5 23 19
30 25 11 3 -8 10 -6 20 5 9 9 20 16 25 16 4 0 21 14 37 30 16 17 36 29 45 29
13 -1 13 -2 -1 -6 -18 -5 -25 -23 -9 -23 5 0 7 -8 4 -18 -4 -16 2 -18 36 -18
23 1 43 -4 45 -10 7 -19 0 -49 -12 -49 -6 0 -13 -3 -17 -7 -4 -4 -13 -4 -21
-1 -8 3 -14 -1 -14 -11 0 -9 -4 -16 -10 -16 -5 0 -10 8 -10 18 0 14 -2 15 -10
2 -7 -11 -5 -18 5 -26 14 -10 14 -12 0 -18 -8 -3 -15 -11 -14 -18 0 -10 2 -10
6 1 4 11 7 11 14 0 6 -10 11 -6 18 14 6 15 18 27 26 27 14 0 14 -4 -3 -27 -14
-21 -17 -35 -11 -55 4 -16 6 -28 4 -28 -2 0 -11 -3 -19 -6 -12 -5 -15 -2 -9
12 4 12 3 15 -5 10 -7 -4 -12 -3 -12 3 0 5 3 11 8 14 4 2 1 2 -5 1 -7 -2 -13
0 -13 5 0 4 -7 8 -15 8 -8 0 -15 -9 -15 -19 0 -10 5 -18 11 -18 5 0 7 5 4 10
-3 6 -2 10 3 10 6 0 12 -7 16 -15 4 -12 -3 -15 -32 -17 l-37 -1 37 -4 c39 -4
63 -33 28 -33 -12 0 -20 -7 -20 -17 -1 -17 -1 -17 -11 0 -5 9 -22 17 -37 17
-19 0 -23 3 -13 9 8 5 14 26 14 50 0 39 16 60 18 24 0 -14 2 -15 6 -3 4 8 12
21 20 28 18 18 17 52 -2 52 -8 0 -15 5 -15 10 0 6 -6 5 -14 -2 -20 -19 -9 -40
15 -27 15 7 19 6 19 -6 0 -8 -3 -16 -7 -16 -5 -1 -18 -3 -29 -4 -29 -3 -44
-13 -44 -31 0 -8 -4 -14 -10 -14 -5 0 -10 7 -10 15 0 8 -4 15 -10 15 -5 0 -10
6 -10 14 0 8 -7 16 -15 20 -11 4 -15 -2 -15 -20 0 -17 -7 -28 -20 -31 -11 -3
-20 -9 -20 -14 0 -5 -11 -7 -24 -3 -14 3 -27 1 -31 -7 -6 -8 -4 -10 5 -4 7 4
15 3 19 -3 5 -8 17 -8 36 -3 17 5 26 10 21 10 -5 1 -3 8 4 16 7 8 17 12 22 9
6 -4 8 3 4 17 -5 18 -5 20 3 8 13 -20 8 -69 -8 -79 -18 -11 26 -40 48 -33 14
6 14 4 -1 -14 -10 -11 -18 -25 -18 -32 0 -7 -4 -9 -10 -6 -5 3 -10 1 -10 -4 0
-6 7 -11 15 -11 8 0 15 -8 15 -19 0 -13 8 -18 28 -19 15 0 225 -2 467 -5 242
-3 451 -5 464 -6 l24 -1 -21 -23 c-12 -13 -22 -27 -22 -31 0 -4 -9 -21 -20
-36 -11 -16 -20 -32 -19 -37 6 -36 -3 -83 -16 -83 -9 0 -12 -6 -9 -15 4 -8 10
-15 16 -15 5 0 6 5 3 10 -3 6 1 10 11 10 26 0 -3 -30 -30 -31 -31 -1 -8 -8 59
-18 54 -8 47 -9 -67 -10 l-128 -1 -1 -32 c0 -18 0 -85 0 -148 l0 -115 -35 100
c-19 55 -43 120 -52 145 l-18 45 -89 0 -89 0 -26 -80 c-14 -44 -34 -103 -43
-130 l-17 -50 -45 3 c-72 6 -92 -3 -99 -43 -8 -42 -19 -50 -40 -29 -12 12 -16
37 -16 104 0 102 5 120 31 120 14 0 19 -7 19 -29 0 -32 17 -41 83 -41 74 0 94
31 63 103 -19 47 -46 66 -110 79 -112 24 -213 -19 -236 -101 -5 -20 -10 -81
-10 -136 l0 -100 -45 -1 -45 -1 -2 166 -3 166 -70 0 -70 0 -3 -214 c-2 -165 1
-216 10 -223 23 -14 256 -10 270 5 10 11 17 11 42 -2 20 -10 56 -15 101 -14
39 0 113 1 166 2 105 0 112 4 124 59 7 33 7 33 58 30 46 -3 51 -5 60 -33 17
-54 21 -55 153 -55 144 0 148 2 142 101 l-3 59 45 -2 c43 -1 43 -2 8 -5 -33
-4 -37 -7 -36 -33 1 -18 5 -27 12 -23 6 3 5 0 -2 -8 -6 -7 -12 -27 -12 -44 -1
-31 -22 -69 -33 -58 -4 3 -7 2 -8 -3 -4 -82 -3 -105 3 -121 6 -12 6 -8 3 11
-6 26 -5 27 10 12 10 -9 14 -23 11 -31 -3 -8 -1 -17 4 -20 15 -9 12 -25 -5
-25 -8 0 -15 5 -15 12 0 6 -3 8 -6 5 -4 -4 -2 -12 4 -19 15 -19 19 -73 5 -73
-14 0 -30 -15 -16 -15 6 0 8 -11 5 -25 -2 -14 -9 -22 -16 -19 -6 3 -2 -2 9
-11 11 -9 19 -21 17 -27 -2 -6 0 -18 4 -27 12 -29 9 -71 -5 -76 -11 -4 -11 -8
0 -22 12 -14 11 -15 -10 -8 -20 6 -23 4 -18 -9 4 -9 3 -16 -1 -16 -4 0 -8 -15
-9 -33 -2 -23 0 -28 7 -17 5 8 10 11 10 6 0 -5 -8 -18 -17 -28 -14 -15 -14
-21 -3 -31 10 -10 12 -8 6 8 -6 16 -5 17 5 8 10 -10 9 -16 -1 -28 -7 -8 -10
-18 -6 -22 3 -3 6 0 6 7 0 11 3 11 12 2 17 -17 4 -24 -47 -26 -24 0 -45 -4
-45 -8 0 -5 4 -8 8 -8 5 0 9 -7 9 -15 0 -18 -13 -20 -21 -2 -3 6 -4 0 -1 -14
4 -25 4 -25 -58 -23 -71 3 -137 -5 -137 -17 0 -4 8 -10 18 -12 10 -3 6 -5 -10
-6 -16 0 -28 4 -28 10 0 6 -7 9 -15 6 -8 -4 -17 -2 -20 3 -4 6 -11 10 -17 10
-7 0 -7 -4 0 -13 6 -7 8 -17 4 -23 -10 -14 -52 -15 -52 -1 0 9 -3 8 -8 -1 -12
-18 -59 -24 -83 -11 -17 8 -23 8 -29 -1 -5 -7 -15 -10 -23 -7 -12 4 -14 2 -10
-10 4 -11 2 -14 -5 -9 -7 4 -12 3 -12 -3 0 -5 -17 -9 -39 -8 -30 1 -38 5 -34
17 4 11 3 12 -4 2 -6 -7 -19 -14 -31 -15 -11 0 -19 -4 -16 -8 2 -4 0 -10 -6
-14 -5 -3 -10 -2 -10 2 0 5 -15 8 -32 7 -18 -1 -39 3 -47 9 -12 10 -13 9 -6
-3 7 -12 3 -11 -18 3 -30 19 -57 22 -57 6 0 -5 6 -7 13 -3 6 4 8 3 4 -1 -4 -5
-30 -8 -57 -8 -44 2 -54 -2 -85 -32 -19 -19 -35 -40 -36 -47 0 -7 -4 -5 -8 5
-6 17 -9 16 -35 -8 -16 -14 -25 -29 -21 -33 4 -4 10 -1 12 6 6 17 23 15 23 -3
0 -8 -7 -15 -16 -15 -14 0 -14 -1 0 -16 9 -8 16 -20 16 -25 0 -19 1131 -4
1243 16 35 7 51 -5 27 -20 -5 -3 -7 -12 -4 -20 8 -20 -15 -85 -30 -85 -16 0
-43 33 -38 48 5 15 -3 15 -29 2 -11 -7 -19 -7 -19 -1 0 5 6 11 13 14 9 4 9 7
-1 18 -11 12 -14 12 -22 -1 -5 -8 -10 -11 -10 -6 0 5 -7 3 -15 -4 -17 -14 -21
-45 -5 -35 6 3 10 3 10 -2 0 -4 3 -18 6 -30 5 -18 2 -23 -14 -23 -12 0 -23 9
-27 20 -6 19 -8 18 -29 -8 -12 -15 -31 -42 -42 -60 -10 -18 -24 -30 -31 -28
-6 3 -13 0 -16 -7 -2 -7 -15 0 -31 18 l-28 30 7 -30 c4 -17 3 -25 -2 -20 -4 6
-31 15 -59 21 -54 11 -73 3 -75 -33 -1 -17 -2 -17 -6 0 -5 18 -23 24 -23 7 0
-15 -43 -12 -67 5 -12 8 -23 11 -25 7 -5 -13 -58 -24 -58 -12 0 5 -6 10 -13
10 -7 0 -23 9 -35 20 -26 24 -33 25 -25 4 5 -14 -3 -16 -62 -12 -53 2 -69 0
-74 -12 -6 -16 -44 -20 -57 -7 -5 4 0 5 11 1 15 -5 17 -4 9 5 -19 20 -49 0
-49 -34 0 -23 -4 -30 -20 -30 -13 0 -20 6 -19 18 1 12 -6 17 -25 17 -15 0 -31
-4 -37 -10 -12 -12 -58 1 -61 17 -2 10 3 10 21 1 28 -12 56 -5 55 14 0 10 -2
10 -6 1 -2 -7 -9 -13 -14 -13 -6 0 -7 5 -4 10 6 10 -21 24 -69 36 -13 3 -29 0
-37 -8 -8 -7 -22 -19 -32 -27 -15 -12 -16 -11 -11 16 5 25 2 31 -16 36 -12 3
-19 10 -15 16 3 6 -1 11 -9 11 -9 0 -16 5 -16 10 0 6 6 10 14 10 24 0 25 23 3
62 -17 31 -23 36 -35 25 -13 -10 -14 -9 -3 12 12 22 12 23 -10 18 -36 -9
-1226 -18 -1208 -10 13 7 13 12 3 33 -11 21 -14 22 -20 7 -3 -9 -12 -17 -20
-17 -17 0 -18 -17 -1 -23 16 -7 25 -7 -408 -10 -209 -1 -486 0 -615 3 -170 4
-199 6 -105 8 93 2 126 5 115 13 -12 8 -10 9 10 7 17 -2 28 4 37 22 11 22 13
23 13 5 1 -19 1 -19 14 -2 7 9 19 17 26 17 10 0 9 -4 -1 -17 -12 -15 -12 -16
6 -9 11 5 28 11 38 13 9 3 17 9 17 13 0 5 14 13 30 19 25 8 30 7 30 -5 0 -12
4 -13 23 -2 12 7 27 11 32 9 45 -14 81 13 71 53 -4 15 -2 26 4 26 5 0 10 -5
10 -11 0 -7 9 -9 23 -5 12 4 27 8 32 9 6 2 16 7 24 12 8 4 34 8 58 6 29 -1 45
3 49 12 3 9 14 12 31 9 l26 -5 -29 -12 c-17 -7 -24 -14 -17 -18 6 -4 14 -3 18
3 3 5 17 7 31 4 20 -5 24 -2 24 15 0 12 3 20 8 20 19 -3 23 2 12 16 -10 12
-10 15 3 15 18 0 29 -24 16 -37 -7 -7 -2 -15 13 -25 20 -13 25 -13 36 -2 12
13 8 18 -10 15 -12 -2 -10 17 2 24 6 3 10 1 10 -5 0 -6 5 -8 10 -5 6 3 10 2
10 -3 0 -6 6 -12 14 -15 10 -4 12 0 9 14 -4 15 -2 18 11 13 9 -3 16 -2 16 3 0
5 15 7 33 4 l32 -5 -30 -7 -30 -7 28 -1 c24 -1 26 -3 17 -21 -6 -11 -7 -20 -1
-20 5 0 12 7 15 16 6 15 8 15 25 -1 13 -11 27 -14 41 -10 15 5 25 1 34 -10 12
-17 13 -16 13 1 0 11 -4 24 -9 30 -5 8 -3 18 7 28 9 9 13 16 9 16 -3 0 -1 7 6
15 10 12 10 15 -1 16 -8 1 -21 2 -29 3 -8 0 -15 8 -16 16 0 9 1 10 3 2 5 -14
6 -14 28 -6 13 5 14 9 3 15 -10 7 -7 11 12 16 l25 7 -30 6 -29 5 21 20 c13 13
19 25 14 33 -11 19 -41 3 -42 -22 0 -11 -3 -15 -6 -8 -2 6 -9 10 -14 6 -5 -3
-9 2 -9 10 0 9 9 21 20 28 26 16 26 32 1 18 -23 -12 -42 -13 -39 -2 1 8 -9 39
-22 62 -4 8 -15 14 -24 12 -9 -2 -16 2 -16 8 0 5 6 10 14 10 9 0 12 8 8 25 -3
16 -10 24 -21 23 -11 -2 -16 5 -16 24 1 15 -5 30 -12 32 -7 3 -13 1 -13 -4 0
-6 -8 -10 -17 -10 -13 0 -14 3 -6 11 9 9 8 15 -3 27 -20 20 -27 10 -14 -22 13
-34 13 -46 0 -46 -5 0 -10 7 -10 15 0 19 -24 19 -40 0 -8 -9 -8 -15 -2 -15 6
0 12 6 15 13 2 6 7 9 11 5 13 -11 -13 -48 -29 -41 -15 5 -58 -32 -66 -56 -6
-15 -76 5 -83 24 -3 8 -1 15 4 15 6 0 10 11 10 25 0 14 5 25 11 25 5 0 7 5 3
11 -5 8 -8 8 -14 0 -5 -9 -18 -8 -48 5 -38 14 -42 20 -42 50 0 31 2 33 33 31
17 -1 35 -6 39 -12 5 -6 8 -5 8 3 0 13 -6 16 -52 26 -21 5 -29 14 -34 42 -4
22 -2 40 5 47 6 6 11 15 11 20 0 5 -7 1 -16 -7 -21 -22 -40 -20 -60 7 l-16 22
6 -27 c4 -17 2 -28 -4 -28 -5 0 -10 5 -10 11 0 6 -6 9 -12 6 -7 -2 -12 -10
-10 -16 3 -15 -10 -14 -36 5 -18 13 -21 19 -11 30 11 13 2 19 -23 15 -12 -2
-9 17 3 21 6 2 9 15 7 28 -4 24 -5 25 -14 4 -8 -18 -13 -20 -34 -12 -15 6 -20
12 -12 15 6 3 12 12 11 21 0 10 -3 12 -5 6 -3 -6 -16 -9 -29 -6 -15 2 -25 0
-25 -7 0 -6 -7 -11 -16 -11 -34 0 15 30 53 33 38 2 38 3 34 37 -4 24 -6 28 -9
14 -3 -23 -27 -34 -73 -34 -24 0 -26 3 -24 40 1 22 -2 40 -7 40 -14 0 -9 22
10 37 9 8 11 12 5 8 -9 -4 -13 1 -13 15 0 12 5 18 10 15 6 -3 10 1 10 11 0 13
-3 14 -15 4 -8 -6 -19 -9 -25 -5 -14 9 18 34 44 35 16 0 17 2 5 16 -12 15 -11
16 11 10 19 -6 22 -5 10 3 -13 10 -13 12 0 21 8 6 23 8 33 6 14 -3 16 0 12 15
-4 11 -2 19 5 19 7 0 10 7 6 15 -3 8 -2 15 3 15 4 0 8 21 9 46 0 26 6 50 12
54 7 4 10 12 6 18 -3 6 2 13 13 17 13 4 18 12 15 28 l-5 22 10 -22 c11 -25 37
-32 28 -9 -6 15 19 43 29 33 4 -3 3 -14 -1 -24 -14 -33 -12 -53 5 -53 9 0 16
-8 16 -20 0 -13 -7 -20 -18 -20 -12 0 -18 -7 -18 -22 1 -22 1 -22 15 -4 14 19
15 18 24 -5 10 -24 10 -24 10 -1 1 19 5 22 36 18 23 -3 35 0 35 7 0 7 16 13
36 15 44 3 54 8 54 30 0 11 8 18 20 19 15 1 20 -4 20 -22 0 -13 3 -30 6 -39 3
-9 1 -16 -5 -16 -6 0 -11 11 -11 25 0 14 -4 25 -10 25 -15 0 -7 -73 10 -87 8
-6 15 -17 15 -24 0 -7 6 -14 13 -17 15 -5 16 24 1 34 -8 4 -8 9 0 17 6 6 11
38 11 72 0 42 -3 56 -10 45 -6 -9 -10 -10 -10 -3 0 6 5 15 10 18 11 7 14 114
4 140 -5 13 -9 14 -15 3 -8 -11 -10 -11 -18 1 -6 10 -11 6 -19 -15 -10 -27
-10 -27 -11 -5 -1 17 -5 22 -17 17 -11 -4 -15 -2 -11 7 4 10 -2 13 -20 9 -16
-3 -21 -7 -13 -12 9 -6 9 -13 1 -29 -14 -25 -29 -28 -27 -4 0 10 -7 19 -16 21
-10 2 -18 -2 -18 -10 0 -8 -8 -14 -17 -15 -45 -3 -63 -8 -63 -16 0 -5 -14 -7
-31 -3 -26 5 -29 3 -24 -13 3 -10 -1 -24 -10 -31 -14 -12 -15 -8 -9 31 4 24
11 50 17 57 6 7 6 12 1 11 -13 -3 -45 12 -40 20 2 3 0 15 -5 26 -7 18 -8 18
-8 1 -1 -12 -6 -16 -16 -12 -18 7 -20 -5 -2 -24 6 -7 0 -5 -15 6 -19 14 -23
22 -16 32 8 9 5 12 -12 12 -17 0 -21 4 -17 20 4 16 0 20 -17 20 -12 0 -27 -5
-34 -12 -8 -8 -15 -8 -25 1 -8 6 -22 9 -31 5 -11 -4 -16 -1 -16 12 0 16 -2 17
-10 4 -6 -9 -13 -11 -17 -5 -9 11 -17 14 -78 25 -24 5 -49 19 -66 38 -15 16
-33 32 -40 35 -8 3 18 6 56 6 39 1 281 4 539 7 516 5 543 8 530 59 -4 17 -2
27 9 31 11 4 14 12 8 27 -4 12 -7 46 -7 74 1 36 -3 53 -11 53 -7 0 -13 -3 -14
-7 0 -5 -2 -26 -3 -48 -4 -54 -14 -75 -37 -75 -10 0 -18 3 -18 8 4 23 -5 28
-51 26 -39 -1 -50 2 -50 14 0 13 -2 13 -17 0 -19 -15 -159 -18 -182 -3 -8 4
-14 -1 -18 -14 -8 -33 -20 -25 -18 13 2 27 -1 33 -14 28 -10 -4 -11 -7 -3 -10
7 -2 10 -8 6 -13 -7 -12 -54 -12 -54 1 0 6 -24 11 -52 11 -29 1 -46 3 -37 6
12 3 15 11 11 26 -5 20 -4 21 12 8 16 -13 17 -12 10 15 -9 39 -9 39 -34 12
-19 -18 -22 -19 -16 -5 3 10 6 29 6 43 0 17 4 22 15 18 8 -4 12 -10 9 -15 -3
-5 -1 -9 5 -9 20 0 21 20 1 32 -23 15 -26 28 -7 28 8 0 22 9 32 20 10 11 13
20 8 20 -6 0 -13 9 -16 20 -3 13 0 20 10 20 9 0 13 6 9 15 -4 11 2 15 22 15
26 1 26 1 7 16 -19 15 -19 15 10 9 17 -4 35 -8 40 -9 6 -2 19 1 30 5 l20 9
-20 -2 c-28 -2 -75 13 -75 23 0 5 12 6 28 3 25 -7 26 -6 13 10 -13 15 -13 19
-1 26 8 5 17 7 21 4 4 -2 5 5 2 16 -4 13 0 20 10 20 8 0 17 9 20 20 4 16 42
41 69 44 15 2 20 16 10 29 -9 11 -6 14 19 14 27 0 29 -2 15 -12 -19 -14 -21
-32 -4 -37 7 -3 12 -24 12 -51 1 -26 5 -47 10 -47 5 0 6 3 3 7 -4 3 1 12 11
19 10 8 12 13 5 14 -9 0 -8 6 3 19 9 10 24 16 34 14 11 -3 25 6 39 23 24 31
29 20 5 -14 -14 -21 -14 -22 11 -22 23 0 26 -4 23 -27 -2 -22 1 -28 15 -26 16
1 18 -5 15 -35 -3 -26 0 -41 11 -50 14 -12 13 -13 -6 -9 -13 3 -26 1 -29 -4
-3 -5 3 -9 13 -10 14 0 15 -2 3 -7 -17 -8 -26 -42 -11 -42 6 0 8 -8 5 -17 -4
-11 -3 -14 3 -7 4 6 16 13 26 17 9 3 17 13 17 22 0 20 29 19 37 -1 3 -9 1 -24
-4 -33 -8 -12 -7 -26 2 -46 6 -17 10 -38 7 -47 -3 -12 1 -18 12 -18 9 0 16 8
17 18 0 9 2 25 4 34 2 10 -1 21 -6 24 -6 4 -6 11 1 19 12 14 3 48 -11 39 -15
-9 -10 16 7 33 11 12 15 36 15 92 0 42 1 97 2 123 l2 48 155 2 c333 6 754 0
758 -11z m-1088 0 c0 -5 -9 -7 -20 -4 -11 3 -20 7 -20 9 0 2 9 4 20 4 11 0 20
-4 20 -9z m1330 -1 c0 -5 -7 -7 -15 -4 -8 4 -15 8 -15 10 0 2 7 4 15 4 8 0 15
-4 15 -10z m-1220 -4 c0 -11 -19 -15 -25 -6 -3 5 1 10 9 10 9 0 16 -2 16 -4z
m22 -26 c-2 -16 -6 -30 -8 -30 -2 0 -4 14 -4 30 0 17 4 30 8 30 5 0 7 -13 4
-30z m-155 -5 c-4 -8 -14 -15 -23 -15 -16 0 -16 2 2 19 21 21 29 19 21 -4z
m93 1 c0 -3 -4 -8 -10 -11 -5 -3 -10 -1 -10 4 0 6 5 11 10 11 6 0 10 -2 10 -4z
m1260 -16 c0 -5 -4 -10 -10 -10 -5 0 -10 5 -10 10 0 6 5 10 10 10 6 0 10 -4
10 -10z m-1210 -35 c-7 -8 -8 -15 -2 -15 5 0 12 -8 15 -19 3 -14 0 -17 -13
-14 -23 6 -26 63 -3 63 13 0 13 -3 3 -15z m30 -92 c0 -19 -18 -16 -23 5 -4 14
-6 14 -12 -5 -8 -26 -45 -32 -45 -8 0 8 7 15 15 15 8 0 15 7 15 15 0 12 4 13
25 3 14 -6 25 -17 25 -25z m1740 12 c0 -8 -7 -15 -15 -15 -16 0 -20 12 -8 23
11 12 23 8 23 -8z m60 -22 c0 -11 -3 -14 -8 -7 -4 6 -14 14 -22 17 -10 4 -8 6
8 6 15 1 22 -5 22 -16z m-100 -13 c0 -5 -4 -10 -10 -10 -5 0 -10 5 -10 10 0 6
5 10 10 10 6 0 10 -4 10 -10z m-1726 -42 c7 -5 5 -8 -6 -8 -21 0 -32 16 -22
32 6 9 9 8 12 -2 3 -8 10 -18 16 -22z m26 22 c0 -5 -4 -10 -10 -10 -5 0 -10 5
-10 10 0 6 5 10 10 10 6 0 10 -4 10 -10z m1790 -10 c13 -8 13 -10 -2 -10 -9 0
-20 5 -23 10 -8 13 5 13 25 0z m-1875 -40 c3 -5 1 -10 -4 -10 -6 0 -11 5 -11
10 0 6 2 10 4 10 3 0 8 -4 11 -10z m-457 -33 c3 -16 1 -17 -17 -5 -25 16 -27
31 -4 26 10 -2 19 -11 21 -21z m552 -7 c0 -5 -4 -10 -10 -10 -5 0 -10 5 -10
10 0 6 5 10 10 10 6 0 10 -4 10 -10z m-600 -86 c0 -8 -5 -12 -10 -9 -6 4 -8
11 -5 16 9 14 15 11 15 -7z m2330 -41 c-11 -17 -11 -17 -6 0 3 10 6 24 7 30 0
9 2 9 5 0 3 -7 0 -20 -6 -30z m-2355 -14 c-6 -18 -4 -20 13 -15 11 4 23 2 27
-4 4 -6 3 -10 -2 -9 -27 5 -35 -1 -23 -16 10 -12 10 -15 -3 -15 -8 0 -18 7
-21 16 -3 9 -12 14 -19 11 -7 -3 -13 5 -13 19 -1 13 2 22 6 19 5 -3 11 -1 15
5 11 19 26 10 20 -11z m2195 -39 c0 -5 -4 -10 -10 -10 -5 0 -10 5 -10 10 0 6
5 10 10 10 6 0 10 -4 10 -10z m-2080 -36 c0 -2 -7 -4 -15 -4 -8 0 -15 4 -15
10 0 5 7 7 15 4 8 -4 15 -8 15 -10z m2025 -4 c3 -5 -1 -10 -10 -10 -9 0 -13 5
-10 10 3 6 8 10 10 10 2 0 7 -4 10 -10z m-1623 -22 c-7 -7 -12 -8 -12 -2 0 14
12 26 19 19 2 -3 -1 -11 -7 -17z m1705 -30 c-3 -8 -6 -5 -6 6 -1 11 2 17 5 13
3 -3 4 -12 1 -19z m-1664 0 c-2 -5 1 -8 8 -8 7 0 10 -3 7 -6 -4 -3 -19 1 -35
9 l-28 15 27 -1 c14 -1 24 -5 21 -9z m2997 -85 c112 -6 120 -7 80 -16 -25 -5
-48 -14 -53 -21 -4 -6 -5 -36 -1 -67 5 -51 4 -57 -15 -62 -14 -3 -18 -10 -14
-26 7 -26 23 -28 23 -2 0 10 7 21 15 25 18 6 18 5 5 -28 -5 -14 -16 -26 -25
-26 -8 0 -15 -6 -15 -14 0 -8 -12 -17 -26 -20 -14 -4 -24 -12 -21 -19 7 -20
-17 -36 -31 -21 -10 10 -7 17 10 34 12 11 25 20 30 20 4 0 8 5 8 10 0 6 -9 5
-21 -2 -18 -11 -23 -10 -36 10 -11 15 -25 22 -48 22 -35 0 -51 -20 -32 -39 8
-8 8 -11 -1 -11 -7 0 -12 5 -12 10 0 6 -4 10 -10 10 -18 0 -11 -30 8 -31 43
-3 82 -17 82 -30 0 -12 -1 -12 -43 6 -50 21 -56 19 -55 -15 1 -27 2 -28 21
-15 18 13 22 12 34 -5 12 -17 12 -22 -1 -36 -21 -21 -20 -22 9 -16 25 4 35
-11 14 -23 -7 -5 -5 -13 6 -25 15 -17 15 -19 -2 -30 -16 -10 -16 -11 0 -6 14
5 17 -1 17 -39 0 -25 -4 -45 -10 -45 -6 0 -9 -6 -8 -12 2 -8 -6 -12 -17 -11
-11 1 -23 -3 -26 -9 -11 -17 2 -40 17 -34 11 4 13 -1 10 -19 -3 -16 1 -28 12
-35 14 -8 12 -9 -11 -10 -20 0 -26 4 -21 13 5 9 4 9 -6 0 -14 -13 -6 -48 10
-38 6 4 10 -6 10 -22 0 -22 -2 -25 -10 -13 -8 13 -11 11 -16 -7 -7 -25 -19
-30 -30 -12 -3 6 0 15 7 20 7 4 10 11 6 15 -8 9 -47 -24 -47 -40 0 -11 35 -46
45 -46 3 0 5 7 5 15 0 31 15 14 17 -19 1 -26 -4 -36 -20 -44 l-22 -11 23 0
c12 -1 22 -5 22 -11 0 -5 -10 -9 -21 -7 -12 1 -24 -4 -27 -12 -3 -10 2 -13 20
-9 13 2 30 -1 36 -9 10 -10 8 -13 -10 -13 -13 0 -32 -7 -42 -15 -10 -8 -24
-12 -29 -8 -6 4 -8 0 -4 -9 4 -12 1 -14 -15 -10 -20 5 -20 6 -3 19 11 7 22 13
27 13 20 0 5 30 -17 36 -24 6 -36 34 -15 34 6 0 10 25 10 56 0 44 -3 55 -14
51 -11 -5 -13 0 -6 23 5 16 11 34 14 39 4 5 1 13 -5 17 -8 5 -8 9 2 14 9 6 8
12 -6 26 -17 17 -17 18 1 25 12 5 14 8 4 8 -11 1 -11 4 -2 13 19 19 41 -19 35
-62 -5 -33 -4 -34 10 -15 8 10 12 25 10 33 -6 15 13 57 40 86 9 11 17 27 17
35 0 14 -1 14 -10 1 -6 -9 -10 -10 -10 -3 0 6 7 18 15 27 8 8 15 21 15 28 0 8
-4 7 -11 -4 -12 -21 -49 -24 -49 -4 0 7 14 16 31 20 18 3 28 10 24 16 -5 8
-11 7 -21 -1 -11 -9 -18 -9 -26 -1 -15 15 -32 16 -23 2 3 -5 1 -18 -4 -27 -10
-17 -10 -17 -11 0 0 9 -4 17 -9 17 -5 0 -8 12 -6 28 2 15 4 30 4 34 1 4 7 5
14 3 9 -4 12 14 12 71 0 42 3 78 7 80 4 3 -1 15 -13 27 -11 12 -23 34 -26 49
-3 14 -14 28 -24 31 -11 3 -19 14 -19 25 0 11 -5 22 -11 24 -5 2 -11 12 -13
22 -1 10 -11 25 -20 32 -38 27 -7 36 103 30 58 -3 162 -9 231 -13z m-4220 3
c0 -2 -8 -10 -17 -17 -16 -13 -17 -12 -4 4 13 16 21 21 21 13z m-133 -38 c-3
-8 -6 -5 -6 6 -1 11 2 17 5 13 3 -3 4 -12 1 -19z m166 15 c-7 -2 -19 -2 -25 0
-7 3 -2 5 12 5 14 0 19 -2 13 -5z m4224 -75 c-3 -7 -5 -2 -5 12 0 14 2 19 5
13 2 -7 2 -19 0 -25z m26 -39 c-8 -8 -13 -7 -18 2 -5 8 -4 10 3 5 7 -4 12 -2
12 5 0 7 3 9 7 6 4 -4 2 -12 -4 -18z m-183 -99 c-6 -11 -16 -20 -22 -20 -7 0
-7 4 1 13 6 8 8 17 4 20 -3 4 1 7 11 7 14 0 15 -4 6 -20z m-3250 -20 c0 -5 -5
-10 -11 -10 -5 0 -7 5 -4 10 3 6 8 10 11 10 2 0 4 -4 4 -10z m3141 -13 c-13
-13 -26 -3 -16 12 3 6 11 8 17 5 6 -4 6 -10 -1 -17z m149 13 c0 -5 -7 -10 -15
-10 -8 0 -15 5 -15 10 0 6 7 10 15 10 8 0 15 -4 15 -10z m-3215 -10 c3 -5 1
-10 -4 -10 -6 0 -11 5 -11 10 0 6 2 10 4 10 3 0 8 -4 11 -10z m3062 -47 c0
-16 -2 -22 -4 -15 -4 10 -8 10 -20 1 -12 -11 -12 -9 -2 14 16 35 27 34 26 0z
m-3302 1 c-15 -16 -18 -16 -33 0 -15 15 -14 16 17 16 30 0 31 -1 16 -16z
m3232 -51 c7 -18 12 -47 12 -65 -1 -27 -3 -24 -10 16 -4 27 -18 63 -30 80 -17
24 -18 27 -4 16 10 -8 24 -29 32 -47z m-3167 27 c0 -5 -5 -10 -11 -10 -5 0 -7
5 -4 10 3 6 8 10 11 10 2 0 4 -4 4 -10z m3445 -60 c3 -6 -1 -7 -9 -4 -18 7
-21 14 -7 14 6 0 13 -4 16 -10z m-55 -16 c0 -8 -4 -12 -10 -9 -5 3 -10 10 -10
16 0 5 5 9 10 9 6 0 10 -7 10 -16z m-386 -3 c11 -17 -6 -41 -28 -41 -16 0 -21
6 -21 25 0 19 5 25 22 25 12 0 24 -4 27 -9z m-2894 -5 c0 -2 -7 -6 -15 -10 -8
-3 -15 -1 -15 4 0 6 7 10 15 10 8 0 15 -2 15 -4z m3310 -6 c0 -5 -5 -10 -11
-10 -5 0 -7 5 -4 10 3 6 8 10 11 10 2 0 4 -4 4 -10z m-14 -56 c-5 -14 -9 -15
-19 -4 -9 10 -9 13 1 17 6 3 9 10 6 16 -5 9 -4 9 6 0 7 -6 10 -19 6 -29z m44
6 c-6 -11 -15 -20 -20 -20 -16 0 -11 18 8 29 24 14 24 14 12 -9z m-282 -21
c-6 -16 -12 -29 -13 -27 -6 6 8 58 16 58 4 0 3 -14 -3 -31z m62 10 c0 -6 -4
-7 -10 -4 -5 3 -10 11 -10 16 0 6 5 7 10 4 6 -3 10 -11 10 -16z m-3440 -9 c0
-5 -10 -10 -22 -10 -19 0 -20 2 -8 10 19 13 30 13 30 0z m2816 -37 c-11 -11
-17 4 -9 23 7 18 8 18 11 1 2 -10 1 -21 -2 -24z m665 17 c5 0 9 -6 9 -13 0
-17 -23 -67 -31 -67 -10 0 -39 48 -38 62 0 10 2 10 6 0 2 -6 9 -10 13 -7 5 3
6 13 3 22 -5 13 -2 15 11 10 10 -4 22 -7 27 -7z m146 -12 c-3 -8 -6 -5 -6 6
-1 11 2 17 5 13 3 -3 4 -12 1 -19z m-3630 -14 c-9 -9 -28 6 -21 18 4 6 10 6
17 -1 6 -6 8 -13 4 -17z m-52 6 c3 -5 1 -10 -4 -10 -6 0 -11 5 -11 10 0 6 2
10 4 10 3 0 8 -4 11 -10z m3685 -31 c0 -5 -4 -9 -10 -9 -5 0 -10 7 -10 16 0 8
5 12 10 9 6 -3 10 -10 10 -16z m-3730 -69 c0 -5 -4 -10 -10 -10 -5 0 -10 5
-10 10 0 6 5 10 10 10 6 0 10 -4 10 -10z m2380 -50 c-14 -11 -34 -20 -45 -20
-13 1 -6 7 20 19 51 25 56 25 25 1z m-2390 -14 c0 -3 -4 -8 -10 -11 -5 -3 -10
-1 -10 4 0 6 5 11 10 11 6 0 10 -2 10 -4z m3281 -69 c-10 -9 -11 -8 -5 6 3 10
9 15 12 12 3 -3 0 -11 -7 -18z m-3275 -62 c1 -8 -2 -15 -7 -15 -5 0 -9 10 -9
22 0 23 12 17 16 -7z m3624 -125 c0 -5 -4 -10 -10 -10 -5 0 -10 5 -10 10 0 6
5 10 10 10 6 0 10 -4 10 -10z m-55 -60 c-3 -5 -14 -10 -23 -9 -14 0 -13 2 3 9
27 11 27 11 20 0z m-3245 -65 c0 -17 -2 -17 -10 -5 -5 8 -10 24 -10 35 0 17 2
17 10 5 5 -8 10 -24 10 -35z m-110 9 c0 -20 -7 -17 -20 6 -9 16 -8 18 5 14 8
-4 15 -12 15 -20z m42 4 c-7 -7 -12 -8 -12 -2 0 6 3 14 7 17 3 4 9 5 12 2 2
-3 -1 -11 -7 -17z m3028 -3 c20 -24 6 -28 -15 -5 -10 11 -13 20 -8 20 6 0 16
-7 23 -15z m-3027 -56 c12 -8 0 -29 -17 -29 -8 0 -11 10 -8 33 3 17 7 25 10
17 3 -8 9 -18 15 -21z m3287 -9 c12 -8 11 -10 -7 -10 -13 0 -23 5 -23 10 0 13
11 13 30 0z m-3225 -40 c-3 -5 -11 -10 -16 -10 -6 0 -7 5 -4 10 3 6 11 10 16
10 6 0 7 -4 4 -10z m3239 -29 c-13 -32 -13 -37 1 -47 22 -17 18 -33 -7 -27
-23 4 -23 4 1 -10 19 -12 21 -15 7 -20 -19 -7 -49 20 -42 39 3 7 0 14 -6 16
-6 2 -5 16 5 40 8 20 13 39 9 42 -3 3 6 5 21 4 25 -2 25 -3 11 -37z m-3419 9
c3 -5 1 -10 -4 -10 -6 0 -11 5 -11 10 0 6 2 10 4 10 3 0 8 -4 11 -10z m115 1
c0 -6 -4 -13 -10 -16 -5 -3 -10 1 -10 9 0 9 5 16 10 16 6 0 10 -4 10 -9z m35
-1 c3 -5 -1 -10 -9 -10 -9 0 -16 5 -16 10 0 6 4 10 9 10 6 0 13 -4 16 -10z
m50 -10 c3 -5 1 -10 -6 -10 -6 0 -18 -8 -25 -17 -11 -15 -13 -16 -14 -2 0 28
32 49 45 29z m-165 -10 c0 -5 -5 -10 -11 -10 -5 0 -7 5 -4 10 3 6 8 10 11 10
2 0 4 -4 4 -10z m498 -16 c2 -16 -3 -23 -20 -26 -29 -5 -48 0 -48 14 0 5 9 6
21 3 18 -6 20 -4 14 15 -6 18 -3 21 12 18 10 -2 19 -13 21 -24z m-508 -24 c0
-5 -2 -10 -4 -10 -3 0 -8 5 -11 10 -3 6 -1 10 4 10 6 0 11 -4 11 -10z m220 -5
c0 -12 -19 -12 -23 0 -4 9 -1 12 9 8 7 -3 14 -7 14 -8z m165 5 c-3 -5 -1 -10
4 -10 6 0 11 5 11 10 0 6 4 10 9 10 6 0 9 -9 8 -20 -1 -17 -6 -20 -29 -15 -34
8 -38 -12 -5 -25 18 -7 19 -9 4 -9 -17 -1 -47 20 -47 33 0 2 7 12 16 20 17 18
39 22 29 6z m3241 -47 c-10 -10 -19 5 -10 18 6 11 8 11 12 0 2 -7 1 -15 -2
-18z m-3176 7 c0 -5 -5 -10 -11 -10 -5 0 -7 5 -4 10 3 6 8 10 11 10 2 0 4 -4
4 -10z m3224 -29 c-2 -3 -12 3 -22 13 -16 17 -16 18 5 5 12 -7 20 -15 17 -18z
m55 -2 c6 -18 11 -33 11 -33 0 -1 -8 -2 -18 -2 -14 0 -17 7 -14 31 3 23 1 27
-7 15 -6 -8 -11 -10 -11 -4 0 12 10 24 21 24 4 0 12 -14 18 -31z m-3419 11 c0
-5 -4 -10 -9 -10 -6 0 -13 5 -16 10 -3 6 1 10 9 10 9 0 16 -4 16 -10z m247
-12 c-3 -8 -6 -5 -6 6 -1 11 2 17 5 13 3 -3 4 -12 1 -19z m-287 2 c0 -5 -2
-10 -4 -10 -3 0 -8 5 -11 10 -3 6 -1 10 4 10 6 0 11 -4 11 -10z m3095 0 c3 -5
-3 -10 -15 -10 -12 0 -18 5 -15 10 3 6 10 10 15 10 5 0 12 -4 15 -10z m242
-12 c-3 -8 -6 -5 -6 6 -1 11 2 17 5 13 3 -3 4 -12 1 -19z m-212 2 c3 -5 1 -10
-4 -10 -6 0 -11 5 -11 10 0 6 2 10 4 10 3 0 8 -4 11 -10z m-3002 -7 c-7 -2
-19 -2 -25 0 -7 3 -2 5 12 5 14 0 19 -2 13 -5z m2970 -10 c-7 -2 -19 -2 -25 0
-7 3 -2 5 12 5 14 0 19 -2 13 -5z m-2904 -29 c-10 -12 -14 -12 -20 -2 -4 7 -3
16 4 20 18 11 29 -2 16 -18z m3121 7 c-5 -11 -15 -21 -22 -23 -9 -3 -8 -9 4
-21 20 -21 24 -21 31 -3 4 10 1 13 -9 9 -7 -3 -14 -1 -14 5 0 5 7 12 15 16 8
3 15 13 15 21 0 9 4 14 10 10 5 -3 6 -13 3 -22 -4 -10 -2 -14 4 -10 11 7 -6
-66 -19 -78 -9 -9 -50 14 -43 25 3 5 1 11 -5 15 -6 3 -10 -4 -10 -18 0 -31 -9
-38 -32 -26 -16 9 -19 7 -16 -7 2 -14 -4 -19 -27 -21 -27 -2 -28 0 -12 11 17
13 25 32 8 22 -4 -3 -6 6 -3 19 4 24 19 30 70 28 6 -1 12 6 12 15 0 17 28 52
42 52 5 0 4 -9 -2 -19z m134 -22 c-6 -11 -24 -2 -24 11 0 5 7 7 15 4 8 -4 12
-10 9 -15z m-338 -50 c-1 -36 -4 -48 -14 -44 -8 3 -18 5 -24 5 -6 0 -6 6 2 15
9 11 9 15 1 15 -7 0 -9 5 -6 10 4 6 10 8 15 5 5 -3 8 4 7 15 -1 11 -8 20 -17
20 -13 0 -13 2 -1 9 26 17 38 1 37 -50z m-2961 21 c3 -5 1 -10 -4 -10 -6 0
-11 5 -11 10 0 6 2 10 4 10 3 0 8 -4 11 -10z m63 -16 c2 -1 -8 -1 -22 0 -26 1
-32 7 -19 19 3 4 13 1 22 -5 9 -7 17 -13 19 -14z m3209 20 c-3 -3 -12 -4 -19
-1 -8 3 -5 6 6 6 11 1 17 -2 13 -5z m-3119 -21 c-10 -2 -28 -2 -40 0 -13 2 -5
4 17 4 22 1 32 -1 23 -4z m3102 3 c0 -3 -4 -8 -10 -11 -5 -3 -10 -1 -10 4 0 6
5 11 10 11 6 0 10 -2 10 -4z m-3400 -21 c0 -9 -6 -12 -16 -8 -13 5 -13 7 -2
14 17 11 18 11 18 -6z m120 -5 c0 -5 -4 -10 -10 -10 -5 0 -10 5 -10 10 0 6 5
10 10 10 6 0 10 -4 10 -10z m3179 -32 c0 -13 -3 -17 -6 -10 -2 6 -9 10 -14 6
-10 -6 -12 9 -2 19 13 14 23 7 22 -15z m-3129 8 c0 -2 -7 -7 -16 -10 -8 -3
-12 -2 -9 4 6 10 25 14 25 6z m155 -25 c3 -8 4 -16 2 -18 -7 -6 -57 16 -57 26
0 14 49 7 55 -8z m2782 3 c-3 -3 -12 -4 -19 -1 -8 3 -5 6 6 6 11 1 17 -2 13
-5z m-2967 -14 c0 -5 -2 -10 -4 -10 -3 0 -8 5 -11 10 -3 6 -1 10 4 10 6 0 11
-4 11 -10z m244 -11 c-3 -5 -10 -7 -15 -3 -5 3 -7 10 -3 15 3 5 10 7 15 3 5
-3 7 -10 3 -15z m2866 7 c0 -11 -19 -15 -25 -6 -3 5 1 10 9 10 9 0 16 -2 16
-4z m-3360 -22 c0 -8 -4 -12 -10 -9 -5 3 -10 10 -10 16 0 5 5 9 10 9 6 0 10
-7 10 -16z m3175 6 c-3 -5 -10 -10 -16 -10 -5 0 -9 5 -9 10 0 6 7 10 16 10 8
0 12 -4 9 -10z m-675 -10 c0 -5 -10 -10 -22 -9 -22 0 -22 1 -3 9 11 5 21 9 23
9 1 1 2 -3 2 -9z m-2433 -16 c-3 -3 -12 -4 -19 -1 -8 3 -5 6 6 6 11 1 17 -2
13 -5z m-130 -20 c-3 -3 -12 -4 -19 -1 -8 3 -5 6 6 6 11 1 17 -2 13 -5z m-104
-45 c4 -13 10 -18 18 -13 8 4 10 3 5 -4 -10 -16 -46 3 -46 23 0 23 17 18 23
-6z m-555 -126 c-10 -2 -26 -2 -35 0 -10 3 -2 5 17 5 19 0 27 -2 18 -5z m4142
-3 c13 -8 13 -10 -2 -10 -9 0 -18 -4 -20 -8 -3 -10 -142 5 -173 18 -13 6 17 9
80 9 55 0 107 -4 115 -9z m-1714 -28 c1 -7 0 -8 -3 -2 -2 5 -9 8 -14 4 -5 -3
-9 0 -9 6 0 15 23 7 26 -8z m54 8 c0 -13 -28 -25 -38 -16 -3 4 0 11 8 16 20
13 30 12 30 0z m-1271 -68 c-10 -37 -21 -79 -24 -94 -4 -21 -9 -26 -23 -21
-14 6 -15 4 -4 -9 8 -10 9 -18 3 -22 -6 -4 -8 -13 -4 -21 3 -8 0 -15 -6 -15
-7 0 -11 -8 -9 -17 2 -13 -5 -19 -22 -21 -35 -5 -50 -22 -19 -22 23 -1 23 -1
5 -15 -18 -14 -18 -15 -2 -21 11 -4 22 -1 27 7 7 11 9 11 9 -2 0 -9 -8 -19
-18 -21 -20 -6 -56 15 -45 25 3 4 2 7 -4 7 -6 0 -13 -10 -17 -22 -4 -18 -8
-20 -18 -10 -6 6 -26 12 -42 12 -30 1 -30 1 -11 16 17 13 18 16 5 24 -12 8
-12 10 -1 10 16 0 7 47 -15 71 -12 14 -13 18 -2 22 8 4 7 6 -4 6 -10 1 -18 6
-18 11 0 6 8 10 18 10 16 1 16 1 0 11 -10 5 -18 14 -18 19 0 14 28 12 32 -2 3
-7 9 -8 19 -3 14 9 19 11 52 13 9 1 17 6 17 12 0 6 -9 6 -25 0 -20 -7 -25 -6
-25 5 0 14 23 20 64 16 19 -1 19 -1 1 19 -16 18 -17 20 -2 14 13 -4 17 -1 17
15 0 12 5 21 10 21 18 0 11 20 -7 22 -18 1 47 11 98 15 l26 2 -18 -67z m237
51 c1 -7 2 -18 3 -23 0 -6 12 -20 26 -32 19 -16 22 -24 13 -31 -9 -6 -6 -7 10
-4 12 3 22 1 22 -5 0 -5 4 -7 9 -4 5 4 11 1 13 -6 3 -7 17 -12 33 -13 20 0 33
-7 40 -21 10 -20 13 -20 53 -9 23 7 39 9 36 3 -10 -15 89 -7 107 9 14 12 17
12 22 -2 8 -20 44 -19 56 3 5 9 20 18 33 19 13 1 39 6 58 10 19 5 51 6 70 2
21 -5 37 -4 41 3 4 7 9 7 13 -1 4 -6 11 -9 16 -6 4 3 33 6 64 6 35 1 53 5 49
12 -4 6 -1 7 7 2 7 -4 15 -3 19 2 3 6 24 14 46 17 33 6 44 3 62 -13 l22 -21
41 35 c23 19 47 32 52 29 6 -4 9 -1 6 7 -8 23 17 40 44 30 22 -9 22 -9 3 -17
-11 -4 -26 -14 -33 -21 -8 -7 -18 -11 -23 -8 -5 4 -9 1 -9 -4 0 -6 5 -11 11
-11 6 0 9 -6 6 -13 -3 -9 3 -13 17 -13 15 1 20 -4 18 -17 -3 -15 2 -17 25 -11
26 6 27 5 9 -8 -13 -10 -15 -17 -8 -22 15 -9 15 -26 1 -26 -6 0 -44 -21 -85
-46 -70 -43 -171 -78 -221 -75 -13 0 -23 -3 -23 -8 0 -5 -13 -14 -30 -21 -16
-7 -27 -16 -24 -21 3 -5 -4 -9 -15 -9 -12 0 -21 -6 -21 -13 0 -17 61 -17 81
-1 8 6 23 14 34 17 64 17 184 65 210 83 17 12 41 27 55 34 25 13 25 13 6 -8
-24 -27 -17 -52 7 -27 10 9 20 15 22 13 8 -8 -19 -80 -32 -85 -7 -3 -13 -11
-13 -19 0 -8 -10 -14 -21 -14 -19 0 -21 -4 -15 -30 4 -23 2 -30 -10 -30 -10 0
-14 -6 -11 -14 3 -8 -2 -17 -11 -21 -9 -3 -12 -9 -7 -13 6 -4 11 -31 13 -59 2
-41 -1 -53 -12 -53 -7 0 -16 6 -19 14 -4 9 -14 12 -27 9 -20 -5 -21 -4 -9 16
15 22 29 28 29 11 0 -5 5 -10 11 -10 20 0 4 35 -16 35 -11 1 -27 5 -34 10 -10
5 -16 4 -19 -3 -2 -7 -10 -12 -17 -12 -7 0 -16 -6 -18 -12 -3 -7 -6 0 -6 16
-1 24 2 27 19 23 24 -6 37 10 21 26 -8 8 -11 8 -11 0 0 -16 -42 -24 -57 -11
-9 7 -14 6 -19 -6 -4 -10 -18 -16 -36 -16 -16 0 -27 4 -23 10 3 5 11 7 18 4 7
-2 18 5 25 16 7 12 8 20 2 20 -5 0 -10 -5 -10 -11 0 -6 -7 -8 -16 -5 -9 4 -23
1 -31 -5 -7 -7 -16 -9 -20 -5 -3 3 -1 6 5 6 7 0 12 7 12 15 0 10 -10 14 -37
12 -30 -2 -37 1 -35 14 1 9 -4 19 -12 22 -16 6 -41 -26 -52 -67 -6 -27 -18
-33 -29 -16 -3 6 -1 10 4 10 14 0 14 37 1 45 -6 4 -13 -7 -16 -25 -4 -17 -9
-29 -11 -26 -3 3 -15 -6 -28 -20 -12 -13 -27 -24 -34 -24 -6 0 -11 -4 -11 -10
0 -5 -14 -10 -31 -10 -23 0 -30 -4 -26 -14 4 -11 -2 -13 -25 -11 -26 4 -29 2
-25 -15 7 -27 -12 -25 -23 2 -6 16 -9 18 -9 7 -1 -25 -55 -43 -111 -36 -39 5
-50 3 -50 -8 0 -9 -6 -12 -15 -9 -8 4 -13 9 -11 13 4 6 -26 38 -31 34 -2 -2
-11 -3 -20 -2 -10 0 -13 3 -7 5 7 3 9 14 7 25 -4 15 -8 17 -14 8 -6 -10 -12
-10 -27 4 -31 29 -61 29 -74 2 -9 -21 -13 -22 -41 -13 -22 8 -35 8 -48 -1 -23
-14 -29 -14 -29 -1 0 6 6 10 14 10 16 0 31 34 21 50 -3 5 -1 10 4 10 10 0 15
-14 12 -32 -1 -8 15 -11 22 -5 2 1 10 -3 18 -10 11 -9 17 -4 31 23 20 39 17
43 -12 12 -18 -19 -20 -20 -20 -4 0 12 -5 16 -15 12 -8 -3 -19 3 -25 12 -8 14
-11 15 -19 3 -6 -10 -13 -11 -27 -2 -18 10 -18 10 0 11 11 0 16 3 13 7 -4 3
-2 12 4 20 9 10 8 13 -5 13 -11 0 -16 9 -16 29 0 16 -7 34 -15 41 -13 11 -13
15 -3 21 9 6 13 32 13 78 0 38 -3 67 -6 65 -3 -2 -6 10 -7 26 0 23 3 28 16 23
15 -6 15 -4 -1 14 -27 30 -19 75 16 91 15 7 27 18 27 23 0 6 5 7 12 3 7 -5 8
-3 3 6 -4 7 -2 16 6 21 20 13 74 7 75 -8z m887 10 c-24 -2 -62 -2 -85 0 -24 2
-5 4 42 4 47 0 66 -2 43 -4z m-1069 -29 c4 -9 2 -22 -4 -29 -7 -9 -7 -21 0
-40 7 -20 7 -31 -1 -41 -9 -11 -8 -18 1 -29 8 -10 9 -15 2 -15 -6 0 -9 -7 -6
-15 4 -9 0 -15 -10 -15 -10 0 -16 -8 -16 -21 0 -12 -8 -28 -17 -34 -17 -13
-17 -14 0 -32 22 -25 22 -33 -2 -33 -16 0 -19 -5 -15 -25 3 -18 0 -25 -12 -25
-11 0 -14 5 -10 16 3 9 6 31 6 49 0 22 8 41 21 54 11 10 16 21 12 24 -6 4 -4
37 4 79 7 40 16 90 19 111 5 39 18 48 28 21z m2373 -66 c-3 -8 -6 -5 -6 6 -1
11 2 17 5 13 3 -3 4 -12 1 -19z m-2647 -13 c0 -9 -6 -12 -15 -9 -8 4 -12 10
-9 15 8 14 24 10 24 -6z m-55 -65 c3 -5 1 -10 -4 -10 -6 0 -11 5 -11 10 0 6 2
10 4 10 3 0 8 -4 11 -10z m1731 -15 c4 -8 10 -12 15 -9 5 3 6 -2 3 -10 -3 -9
-1 -16 4 -16 13 0 12 -42 0 -51 -5 -3 -1 -12 8 -20 16 -12 17 -12 12 3 -5 11
0 18 18 22 14 4 24 14 24 25 0 10 6 18 13 18 6 0 20 4 30 8 14 6 17 2 17 -29
0 -35 10 -43 43 -37 5 1 6 -3 2 -9 -3 -6 4 -14 17 -19 13 -6 19 -10 14 -10 -5
-1 -2 -8 5 -17 12 -15 10 -16 -24 -12 -46 5 -49 -8 -4 -21 17 -5 24 -10 15
-10 -21 -1 -23 -23 -6 -51 10 -16 10 -22 -1 -32 -10 -11 -12 -10 -10 2 2 8 -3
25 -11 36 -11 18 -17 20 -36 12 -17 -8 -27 -8 -37 1 -11 9 -17 8 -27 -4 -7 -8
-16 -13 -20 -10 -9 5 11 87 23 96 5 3 2 9 -7 12 -9 4 -16 2 -16 -3 0 -5 -7 -7
-15 -4 -10 4 -15 0 -15 -11 0 -9 -4 -13 -10 -10 -5 3 -10 1 -10 -4 0 -6 12
-12 28 -12 16 -1 20 -3 10 -6 -10 -2 -18 -11 -18 -19 0 -8 -5 -14 -12 -14 -6
0 -8 -3 -4 -7 4 -4 -8 -13 -26 -19 -18 -6 -32 -17 -30 -23 1 -6 -4 -11 -12
-11 -11 0 -14 9 -10 38 3 26 2 31 -4 17 -8 -18 -9 -17 -16 8 -3 15 -2 35 3 45
8 14 10 14 11 2 0 -13 2 -13 9 0 6 8 7 18 5 22 -3 4 3 8 12 8 14 0 15 -3 6
-12 -18 -18 -15 -28 8 -28 11 0 20 -7 20 -15 0 -8 8 -15 18 -14 10 0 12 3 5 6
-15 6 -17 39 -3 48 16 10 12 28 -5 21 -9 -3 -15 0 -15 9 0 8 -8 15 -18 15 -26
0 -49 21 -56 52 -5 24 -3 27 21 30 16 2 29 9 29 16 2 20 4 22 14 22 6 0 13 -7
16 -15z m221 -17 c-3 -8 -6 -5 -6 6 -1 11 2 17 5 13 3 -3 4 -12 1 -19z m-147
-14 c0 -14 -22 -44 -30 -39 -13 8 0 45 16 45 8 0 14 -3 14 -6z m-1475 -115
c-11 -34 -21 -20 -16 24 3 37 5 39 13 18 4 -13 6 -32 3 -42z m-245 -35 c0 -8
-4 -12 -10 -9 -5 3 -10 10 -10 16 0 5 5 9 10 9 6 0 10 -7 10 -16z m60 0 c0 -8
-4 -13 -9 -10 -5 3 -11 -1 -15 -9 -3 -8 -13 -15 -23 -15 -14 1 -11 6 12 25 36
29 35 29 35 9z m127 -46 c-3 -8 -6 -5 -6 6 -1 11 2 17 5 13 3 -3 4 -12 1 -19z
m1473 -34 c0 -9 -7 -22 -15 -28 -9 -6 -17 -21 -18 -33 -1 -26 -32 -37 -48 -17
-9 11 -7 14 9 14 11 0 19 6 18 13 -1 15 35 67 46 67 5 0 8 -7 8 -16z m73 -24
c-4 -5 -14 -2 -21 6 -11 12 -10 14 3 14 8 0 16 6 16 13 1 6 3 4 6 -7 3 -10 1
-22 -4 -26z m97 31 c0 -5 -18 -8 -40 -7 -52 1 -52 16 0 16 22 0 40 -4 40 -9z
m-40 -36 c0 -8 -5 -15 -11 -15 -6 0 -8 -7 -5 -16 4 -9 2 -13 -5 -8 -6 4 -16 0
-21 -7 -8 -11 -9 -10 -4 4 3 9 1 17 -4 17 -5 0 -2 9 7 20 21 24 43 26 43 5z
m-100 -20 c-7 -8 -16 -12 -21 -9 -13 8 -1 24 18 24 13 0 13 -3 3 -15z m-1376
-30 c3 -9 0 -15 -9 -15 -9 0 -12 6 -9 15 4 8 7 15 9 15 2 0 5 -7 9 -15z m672
-12 c-10 -10 -19 5 -10 18 6 11 8 11 12 0 2 -7 1 -15 -2 -18z m454 12 c0 -8
-4 -15 -10 -15 -5 0 -7 7 -4 15 4 8 8 15 10 15 2 0 4 -7 4 -15z m35 6 c3 -5 1
-12 -5 -16 -5 -3 -10 1 -10 9 0 18 6 21 15 7z m235 -15 c-7 -7 -14 -6 -21 1
-9 9 -7 12 9 10 14 -1 18 -5 12 -11z m-690 -6 c0 -5 -4 -10 -10 -10 -5 0 -10
5 -10 10 0 6 5 10 10 10 6 0 10 -4 10 -10z m73 3 c-7 -2 -21 -2 -30 0 -10 3
-4 5 12 5 17 0 24 -2 18 -5z m154 -15 c-3 -8 -6 -5 -6 6 -1 11 2 17 5 13 3 -3
4 -12 1 -19z m588 12 c3 -5 1 -10 -4 -10 -6 0 -11 5 -11 10 0 6 2 10 4 10 3 0
8 -4 11 -10z m-505 -10 c0 -5 -10 -15 -22 -21 -23 -12 -23 -12 -4 10 21 23 26
26 26 11z m404 -20 c-6 -6 -10 -3 -10 10 0 13 4 16 10 10 7 -7 7 -13 0 -20z
m-1294 16 c0 -3 -4 -8 -10 -11 -5 -3 -10 -1 -10 4 0 6 5 11 10 11 6 0 10 -2
10 -4z m-93 -41 c-4 -8 -16 -15 -28 -15 -21 0 -21 0 2 19 26 21 35 20 26 -4z
m752 3 c1 17 21 15 21 -3 0 -19 -36 -20 -43 -1 -3 8 -3 17 1 21 3 3 10 -2 13
-12 4 -10 8 -12 8 -5z m178 16 c-3 -3 -12 -4 -19 -1 -8 3 -5 6 6 6 11 1 17 -2
13 -5z m578 -4 c3 -5 1 -10 -4 -10 -6 0 -11 5 -11 10 0 6 2 10 4 10 3 0 8 -4
11 -10z m-218 -6 c-3 -3 -12 -4 -19 -1 -8 3 -5 6 6 6 11 1 17 -2 13 -5z m-417
-14 c0 -5 -4 -10 -10 -10 -5 0 -10 5 -10 10 0 6 5 10 10 10 6 0 10 -4 10 -10z
m34 -21 c-10 -16 -24 -9 -24 12 0 18 2 19 15 9 8 -7 12 -16 9 -21z m104 4
c-10 -2 -18 -12 -18 -21 0 -15 -2 -15 -10 -2 -16 24 -12 30 18 29 16 -1 20 -3
10 -6z m-853 -13 c3 -5 2 -10 -4 -10 -5 0 -13 5 -16 10 -3 6 -2 10 4 10 5 0
13 -4 16 -10z m1090 -50 c3 -5 1 -10 -4 -10 -6 0 -11 5 -11 10 0 6 2 10 4 10
3 0 8 -4 11 -10z m-292 -7 c-7 -2 -21 -2 -30 0 -10 3 -4 5 12 5 17 0 24 -2 18
-5z m-2086 -99 c-3 -3 -12 -4 -19 -1 -8 3 -5 6 6 6 11 1 17 -2 13 -5z m76 -1
c-7 -2 -19 -2 -25 0 -7 3 -2 5 12 5 14 0 19 -2 13 -5z m100 0 c-13 -2 -35 -2
-50 0 -16 2 -5 4 22 4 28 0 40 -2 28 -4z m229 0 c-40 -2 -103 -2 -140 0 -37 2
-4 3 73 3 77 0 107 -2 67 -3z m705 1 c-3 -3 -12 -4 -19 -1 -8 3 -5 6 6 6 11 1
17 -2 13 -5z m161 -1 c-27 -2 -69 -2 -95 0 -27 2 -5 3 47 3 52 0 74 -1 48 -3z
m200 0 c-26 -2 -71 -2 -100 0 -29 2 -8 3 47 3 55 0 79 -1 53 -3z m1210 2 c-6
-7 -1150 -7 -1156 0 -3 3 257 5 578 5 321 0 581 -2 578 -5z m65 -2 c-7 -2 -19
-2 -25 0 -7 3 -2 5 12 5 14 0 19 -2 13 -5z m50 0 c-7 -2 -19 -2 -25 0 -7 3 -2
5 12 5 14 0 19 -2 13 -5z m94 1 c-3 -3 -12 -4 -19 -1 -8 3 -5 6 6 6 11 1 17
-2 13 -5z m-1160 -40 c-3 -3 -12 -4 -19 -1 -8 3 -5 6 6 6 11 1 17 -2 13 -5z
m236 -1 c-7 -2 -19 -2 -25 0 -7 3 -2 5 12 5 14 0 19 -2 13 -5z"/>
<path d="M2900 3970 c0 -5 5 -10 11 -10 5 0 7 5 4 10 -3 6 -8 10 -11 10 -2 0
-4 -4 -4 -10z"/>
<path d="M2617 3879 c7 -7 15 -10 18 -7 3 3 -2 9 -12 12 -14 6 -15 5 -6 -5z"/>
<path d="M2421 3624 c0 -11 3 -14 6 -6 3 7 2 16 -1 19 -3 4 -6 -2 -5 -13z"/>
<path d="M3223 3615 c-25 -11 -31 -25 -10 -25 18 0 40 16 36 26 -2 5 -14 5
-26 -1z"/>
<path d="M2634 3601 c4 -5 1 -12 -4 -14 -6 -3 -5 -4 2 -3 15 3 23 26 8 26 -6
0 -9 -4 -6 -9z"/>
<path d="M1910 3572 c-11 -12 -10 -13 9 -7 18 5 24 2 28 -14 3 -12 9 -21 13
-21 7 0 19 33 20 51 0 12 -57 5 -70 -9z"/>
<path d="M2426 3565 c-3 -8 -1 -15 4 -15 6 0 10 7 10 15 0 8 -2 15 -4 15 -2 0
-6 -7 -10 -15z"/>
<path d="M2051 3544 c0 -11 3 -14 6 -6 3 7 2 16 -1 19 -3 4 -6 -2 -5 -13z"/>
<path d="M2456 3545 c-3 -8 -1 -15 4 -15 6 0 10 7 10 15 0 8 -2 15 -4 15 -2 0
-6 -7 -10 -15z"/>
<path d="M1900 3540 c0 -6 -7 -10 -15 -10 -8 0 -15 -5 -15 -11 0 -7 9 -9 23
-5 12 3 25 6 30 6 13 0 7 18 -8 24 -8 3 -15 1 -15 -4z"/>
<path d="M2098 3543 c6 -2 18 -2 25 0 6 3 1 5 -13 5 -14 0 -19 -2 -12 -5z"/>
<path d="M2045 3510 c-3 -5 2 -10 13 -10 26 0 36 -27 14 -39 -15 -9 -15 -10 4
-11 31 0 52 27 33 44 -20 20 -56 29 -64 16z"/>
<path d="M2400 3499 c0 -5 5 -7 10 -4 6 3 10 8 10 11 0 2 -4 4 -10 4 -5 0 -10
-5 -10 -11z"/>
<path d="M3320 3487 c-9 -7 -14 -24 -12 -40 4 -33 22 -26 22 9 0 13 4 24 9 24
5 0 9 -18 9 -40 1 -30 -5 -44 -21 -55 -20 -14 -20 -16 -4 -32 11 -11 17 -13
17 -5 0 7 -5 12 -11 12 -6 0 -1 11 12 25 24 25 49 33 49 15 0 -5 7 -7 16 -3
13 5 15 2 9 -15 -5 -16 -2 -22 10 -22 9 0 13 5 10 10 -4 6 -1 18 7 27 11 14
11 16 -1 9 -9 -6 -12 -5 -9 5 3 8 13 13 22 13 24 -2 19 23 -6 30 -34 9 -58 7
-58 -3 0 -5 8 -12 18 -14 10 -3 6 -5 -10 -6 -21 -1 -28 4 -28 18 0 47 -20 62
-50 38z"/>
<path d="M3400 3480 c-20 -7 -17 -8 18 -7 26 0 38 3 30 9 -15 9 -14 9 -48 -2z"/>
<path d="M1925 3470 c3 -5 10 -10 16 -10 5 0 9 5 9 10 0 6 -7 10 -16 10 -8 0
-12 -4 -9 -10z"/>
<path d="M2501 3464 c0 -11 3 -14 6 -6 3 7 2 16 -1 19 -3 4 -6 -2 -5 -13z"/>
<path d="M1944 3434 c3 -9 6 -18 6 -20 0 -3 4 -3 10 1 11 7 2 35 -12 35 -6 0
-7 -7 -4 -16z"/>
<path d="M2044 3423 c10 -11 36 -12 36 -2 0 5 -10 9 -22 9 -12 0 -18 -3 -14
-7z"/>
<path d="M1797 3393 c-12 -11 -8 -21 11 -27 9 -3 0 -4 -22 -2 -34 2 -36 1 -20
-11 15 -11 16 -17 7 -32 -7 -10 -9 -22 -6 -25 4 -3 14 8 24 24 11 17 26 30 34
30 19 0 19 14 -1 34 -18 18 -18 18 -27 9z"/>
<path d="M2000 3390 c0 -5 5 -10 11 -10 5 0 7 5 4 10 -3 6 -8 10 -11 10 -2 0
-4 -4 -4 -10z"/>
<path d="M3285 3390 c3 -5 8 -10 11 -10 2 0 4 5 4 10 0 6 -5 10 -11 10 -5 0
-7 -4 -4 -10z"/>
<path d="M3903 3348 c2 -19 -4 -24 -30 -26 -47 -5 -41 -22 7 -22 39 0 40 1 40
35 0 19 -4 35 -10 35 -5 0 -9 -10 -7 -22z"/>
<path d="M2112 3343 c-10 -19 -6 -43 7 -43 4 0 8 14 8 30 0 35 -3 37 -15 13z"/>
<path d="M1952 3324 c-7 -8 -8 -15 -2 -19 6 -3 10 -1 10 4 0 6 7 11 15 11 8 0
15 4 15 8 0 13 -24 10 -38 -4z"/>
<path d="M2187 3309 c3 -12 1 -24 -5 -28 -6 -4 0 -11 14 -18 23 -10 24 -10 18
15 -9 44 -13 52 -23 52 -5 0 -7 -9 -4 -21z"/>
<path d="M1815 3310 c3 -5 8 -10 11 -10 2 0 4 5 4 10 0 6 -5 10 -11 10 -5 0
-7 -4 -4 -10z"/>
<path d="M2077 3300 c3 -11 9 -17 14 -15 10 7 1 35 -11 35 -5 0 -6 -9 -3 -20z"/>
<path d="M3945 3310 c11 -5 29 -9 40 -9 l20 0 -20 9 c-11 5 -29 9 -40 9 l-20
0 20 -9z"/>
<path d="M2046 3284 c-4 -10 -1 -14 6 -12 15 5 23 28 10 28 -5 0 -13 -7 -16
-16z"/>
<path d="M3760 3290 c0 -5 -10 -10 -22 -10 -20 0 -21 -1 -3 -20 10 -11 25 -20
34 -20 13 0 13 2 2 9 -8 5 -11 16 -6 30 3 11 4 21 1 21 -3 0 -6 -4 -6 -10z"/>
<path d="M3351 3274 c0 -11 3 -14 6 -6 3 7 2 16 -1 19 -3 4 -6 -2 -5 -13z"/>
<path d="M1785 3270 c4 -6 11 -8 16 -5 14 9 11 15 -7 15 -8 0 -12 -5 -9 -10z"/>
<path d="M1890 3269 c0 -5 5 -7 10 -4 6 3 10 8 10 11 0 2 -4 4 -10 4 -5 0 -10
-5 -10 -11z"/>
<path d="M2138 3273 c7 -3 16 -2 19 1 4 3 -2 6 -13 5 -11 0 -14 -3 -6 -6z"/>
<path d="M3689 3263 c0 -10 -2 -30 -3 -45 -1 -16 2 -28 6 -28 4 0 8 20 8 45 0
42 -9 65 -11 28z"/>
<path d="M3582 3240 c0 -14 2 -19 5 -12 2 6 2 18 0 25 -3 6 -5 1 -5 -13z"/>
<path d="M3619 3255 c-6 -48 -5 -75 2 -75 5 0 9 9 9 21 0 14 5 19 15 16 21 -9
29 11 11 29 -12 12 -16 12 -16 2 0 -10 -3 -9 -10 2 -5 8 -10 11 -11 5z"/>
<path d="M2135 3240 c-4 -6 1 -7 11 -3 13 5 15 3 9 -7 -5 -9 -4 -11 4 -6 6 4
9 12 6 17 -8 12 -22 12 -30 -1z"/>
<path d="M1735 3230 c3 -5 8 -10 11 -10 2 0 4 5 4 10 0 6 -5 10 -11 10 -5 0
-7 -4 -4 -10z"/>
<path d="M1878 3233 c-10 -2 -18 -9 -18 -14 0 -13 12 -11 34 6 20 15 16 17
-16 8z"/>
<path d="M2064 3226 c10 -8 16 -19 13 -23 -3 -5 13 -9 36 -10 23 0 35 1 27 4
-8 3 -19 11 -25 17 -5 7 -23 16 -40 19 -28 7 -29 6 -11 -7z"/>
<path d="M3455 3230 c11 -5 27 -9 35 -9 9 0 8 4 -5 9 -11 5 -27 9 -35 9 -9 0
-8 -4 5 -9z"/>
<path d="M3710 3219 c0 -11 5 -17 10 -14 6 3 10 13 10 21 0 8 -4 14 -10 14 -5
0 -10 -9 -10 -21z"/>
<path d="M2020 3226 c0 -2 7 -7 16 -10 8 -3 12 -2 9 4 -6 10 -25 14 -25 6z"/>
<path d="M3580 3200 c0 -5 5 -10 10 -10 6 0 10 5 10 10 0 6 -4 10 -10 10 -5 0
-10 -4 -10 -10z"/>
<path d="M1775 3190 c-3 -5 -1 -10 4 -10 6 0 11 5 11 10 0 6 -2 10 -4 10 -3 0
-8 -4 -11 -10z"/>
<path d="M1820 3175 c-8 -9 -8 -15 -2 -15 12 0 26 19 19 26 -2 2 -10 -2 -17
-11z"/>
<path d="M2055 3170 c5 -9 1 -10 -16 -6 -21 6 -22 6 -6 -5 13 -7 22 -8 29 -1
6 6 6 12 -3 17 -8 6 -10 4 -4 -5z"/>
<path d="M2121 3161 c-25 -7 -42 -31 -22 -31 6 0 11 5 11 11 0 8 4 8 14 0 10
-8 16 -8 25 3 15 18 3 25 -28 17z"/>
<path d="M1898 3143 c7 -3 16 -2 19 1 4 3 -2 6 -13 5 -11 0 -14 -3 -6 -6z"/>
<path d="M2196 3125 c-3 -8 -1 -15 4 -15 6 0 10 7 10 15 0 8 -2 15 -4 15 -2 0
-6 -7 -10 -15z"/>
<path d="M2621 3119 c-10 -4 -22 -12 -26 -18 -10 -18 -45 -14 -39 4 5 11 2 14
-12 9 -11 -4 -23 -10 -29 -15 -16 -11 -49 -14 -63 -5 -10 6 -13 2 -10 -15 2
-19 -1 -23 -15 -21 -21 4 -60 -26 -52 -39 3 -4 -4 -10 -15 -14 -11 -4 -18 -11
-15 -16 4 -5 1 -9 -5 -9 -6 0 -9 -3 -7 -7 3 -5 271 -8 596 -8 480 0 591 -2
591 -13 0 -7 5 -10 10 -7 17 10 11 -7 -7 -20 -13 -9 -13 -14 -3 -20 8 -5 11
-4 7 2 -4 6 2 13 12 16 14 3 18 1 14 -9 -3 -8 0 -14 6 -14 12 0 15 12 11 44
-1 10 4 23 12 27 10 7 10 9 1 9 -7 0 -13 5 -13 11 0 5 5 7 10 4 6 -4 2 10 -7
29 -10 20 -22 36 -26 36 -7 0 -35 -27 -65 -64 -9 -12 -30 -16 -79 -16 -93 0
-143 17 -155 52 -9 25 -14 28 -52 26 -22 -2 -44 -7 -48 -13 -5 -6 -14 -1 -23
12 -19 27 -68 50 -110 52 -23 1 -26 -2 -15 -9 12 -8 11 -10 -7 -10 -12 0 -25
5 -28 10 -9 15 -25 12 -25 -4 0 -8 -5 -18 -10 -21 -6 -4 -9 -1 -8 7 2 7 -7 14
-19 16 -13 2 -23 -2 -23 -8 0 -6 -5 -8 -11 -5 -6 4 -8 13 -5 20 3 9 -2 11 -16
7 -11 -2 -22 -11 -25 -18 -9 -23 -23 -16 -23 12 0 23 -2 25 -15 14 -12 -10
-19 -10 -27 -2 -7 7 -19 12 -27 11 -11 0 -12 -2 -3 -6 14 -5 16 -23 3 -23 -5
0 -16 7 -25 15 -15 15 -49 17 -85 4z m432 -33 c4 -10 1 -13 -9 -9 -7 3 -14 9
-14 14 0 14 17 10 23 -5z"/>
<path d="M3130 3069 c0 -5 5 -7 10 -4 6 3 10 8 10 11 0 2 -4 4 -10 4 -5 0 -10
-5 -10 -11z"/>
<path d="M3748 3073 c7 -3 16 -2 19 1 4 3 -2 6 -13 5 -11 0 -14 -3 -6 -6z"/>
<path d="M3651 3039 c-13 -11 -22 -22 -19 -24 2 -3 15 6 28 20 28 30 24 32 -9
4z"/>
<path d="M3620 2985 c-9 -10 -9 -15 -1 -15 6 0 11 4 11 9 0 5 8 12 18 14 14 4
14 5 1 6 -9 0 -22 -6 -29 -14z"/>
<path d="M1935 2790 c-16 -11 -24 -20 -18 -20 10 0 13 -63 15 -262 l3 -263
157 -5 c86 -3 155 -2 153 1 -2 3 18 11 46 18 34 9 55 21 67 39 l17 26 5 -39 5
-40 67 -3 c60 -3 68 -1 78 19 7 13 10 48 8 85 l-4 63 34 -62 c18 -34 38 -72
43 -85 8 -22 13 -23 111 -20 l103 3 13 43 c14 42 14 42 62 42 47 0 49 -1 61
-37 15 -47 23 -53 75 -53 l41 0 14 -69 15 -69 -22 15 c-28 18 -59 10 -80 -23
-15 -22 -15 -26 1 -51 12 -18 14 -28 7 -31 -7 -2 -12 -19 -12 -39 0 -28 10
-46 50 -90 27 -31 56 -70 64 -87 17 -35 70 -94 104 -116 15 -10 27 -31 33 -60
13 -60 43 -74 144 -68 58 4 82 11 119 34 55 35 60 45 42 87 -11 27 -11 40 1
82 26 90 27 163 3 280 -29 142 -35 155 -75 155 -17 0 -36 -5 -42 -11 -8 -8
-13 -6 -17 8 -8 26 -52 46 -74 34 -12 -6 -24 -4 -41 10 -22 18 -22 19 -3 19
11 0 34 11 51 25 l30 26 3 -28 c3 -26 7 -28 52 -31 27 -2 60 -1 73 3 l23 5 -2
218 -3 217 -63 3 c-36 2 -69 -2 -77 -8 -9 -8 -15 -8 -20 0 -4 6 -49 10 -113
10 -137 -1 -184 -19 -210 -81 l-18 -42 -18 56 c-21 66 -28 69 -131 65 l-69 -3
-19 -55 c-11 -30 -34 -98 -52 -150 -32 -92 -34 -94 -45 -68 -11 24 -10 29 15
51 23 19 29 34 33 79 5 68 -14 109 -62 132 -40 19 -290 24 -301 5 -4 -6 -14 4
-23 23 -33 64 -65 73 -259 73 -166 0 -172 1 -150 17 30 24 19 22 -18 -2z m258
-161 c18 -29 1 -49 -43 -49 -39 0 -40 1 -40 36 0 34 1 35 36 32 21 -2 42 -10
47 -19z m1197 -116 c0 -72 -1 -76 -15 -56 -8 12 -49 38 -91 57 -41 20 -74 42
-72 48 3 7 33 12 80 12 42 1 80 5 84 9 13 13 14 8 14 -70z m-1010 16 l0 -51
-19 23 c-17 21 -17 24 -2 51 9 15 17 28 19 28 1 0 2 -23 2 -51z m212 27 c10
-15 -10 -46 -31 -46 -13 0 -20 9 -23 30 -3 17 -3 32 -1 34 7 6 48 -7 55 -18z
m318 -101 c0 -8 -4 -15 -10 -15 -5 0 -10 7 -10 15 0 8 5 15 10 15 6 0 10 -7
10 -15z m267 -44 c55 -25 72 -45 46 -55 -19 -8 -33 1 -33 19 0 20 -38 38 -71
33 -24 -4 -30 0 -39 25 -14 41 -14 41 18 20 15 -10 50 -29 79 -42z m-983 33
c19 -7 21 -45 4 -62 -7 -7 -29 -12 -50 -12 -38 0 -38 0 -38 40 0 39 1 40 34
40 19 0 41 -3 50 -6z m975 -86 c5 -13 16 -75 26 -138 22 -144 31 -180 49 -205
14 -19 15 -18 15 20 0 22 -6 66 -14 98 -16 69 -12 87 21 87 28 0 38 -17 54
-92 16 -79 35 -77 26 2 l-7 60 30 0 c28 0 31 -4 47 -60 19 -68 40 -82 30 -20
-6 36 -4 40 18 46 14 3 29 3 34 0 6 -3 17 -47 27 -98 14 -76 15 -99 4 -135 -6
-24 -15 -46 -20 -48 -4 -3 -4 9 2 27 12 45 11 129 -2 186 -13 53 -22 67 -37
58 -7 -4 -4 -22 8 -49 33 -75 35 -119 8 -179 -30 -65 -76 -113 -125 -129 -21
-6 -41 -16 -44 -21 -13 -21 -94 29 -145 88 -114 134 -176 234 -146 234 16 0
91 -71 119 -113 32 -48 63 -55 39 -9 -15 31 -17 38 -61 236 -19 81 -31 154
-28 162 9 24 62 17 72 -8z m302 -552 c-18 -21 -75 -46 -107 -46 -33 0 -24 13
14 18 15 1 43 14 62 26 37 25 51 26 31 2z m43 -38 c9 -34 7 -45 -6 -51 -9 -3
-13 8 -13 34 -1 43 9 52 19 17z m-51 -34 c4 -23 -1 -28 -37 -45 -81 -37 -156
-19 -156 36 0 23 2 24 28 14 29 -11 117 -4 142 11 8 5 16 10 16 10 1 0 4 -12
7 -26z"/>
<path d="M3134 2348 c3 -13 5 -23 6 -23 1 0 3 -10 6 -23 5 -26 24 -66 29 -60
7 7 -20 104 -32 116 -11 11 -12 9 -9 -10z"/>
<path d="M3291 2164 c0 -11 3 -14 6 -6 3 7 2 16 -1 19 -3 4 -6 -2 -5 -13z"/>
<path d="M3376 2158 c8 -27 12 -33 19 -27 7 8 -7 49 -17 49 -5 0 -6 -10 -2
-22z"/>
<path d="M3332 1961 c-10 -22 -10 -34 -1 -54 l12 -26 19 25 c17 21 18 28 6 54
-16 37 -20 37 -36 1z"/>
<path d="M1615 2750 c3 -5 8 -10 11 -10 2 0 4 5 4 10 0 6 -5 10 -11 10 -5 0
-7 -4 -4 -10z"/>
<path d="M4543 2753 c9 -2 23 -2 30 0 6 3 -1 5 -18 5 -16 0 -22 -2 -12 -5z"/>
<path d="M1640 2741 c0 -6 5 -13 10 -16 6 -3 10 1 10 9 0 9 -4 16 -10 16 -5 0
-10 -4 -10 -9z"/>
<path d="M4580 2720 c0 -5 5 -10 10 -10 6 0 10 5 10 10 0 6 -4 10 -10 10 -5 0
-10 -4 -10 -10z"/>
<path d="M4626 2717 c3 -10 9 -15 12 -12 3 3 0 11 -7 18 -10 9 -11 8 -5 -6z"/>
<path d="M1779 2500 c-13 -10 -19 -19 -12 -20 18 0 63 22 63 32 0 14 -27 9
-51 -12z"/>
<path d="M1560 2501 c0 -6 5 -13 10 -16 6 -3 10 1 10 9 0 9 -4 16 -10 16 -5 0
-10 -4 -10 -9z"/>
<path d="M1555 2439 c-3 -5 1 -6 9 -3 9 3 16 1 16 -6 0 -6 5 -8 10 -5 6 3 10
9 10 13 0 11 -39 12 -45 1z"/>
<path d="M1858 2443 c7 -3 16 -2 19 1 4 3 -2 6 -13 5 -11 0 -14 -3 -6 -6z"/>
<path d="M1648 2423 c7 -3 16 -2 19 1 4 3 -2 6 -13 5 -11 0 -14 -3 -6 -6z"/>
<path d="M1550 2400 c0 -5 5 -10 10 -10 6 0 10 5 10 10 0 6 -4 10 -10 10 -5 0
-10 -4 -10 -10z"/>
<path d="M1905 2400 c-3 -5 -1 -10 4 -10 6 0 11 5 11 10 0 6 -2 10 -4 10 -3 0
-8 -4 -11 -10z"/>
<path d="M1605 2390 c-3 -5 -1 -10 4 -10 6 0 11 5 11 10 0 6 -2 10 -4 10 -3 0
-8 -4 -11 -10z"/>
<path d="M1705 2339 c-4 -6 -4 -13 -1 -16 8 -8 36 5 36 17 0 13 -27 13 -35 -1z"/>
<path d="M1712 2301 c-18 -11 -11 -46 8 -46 9 0 16 11 18 28 3 28 -3 33 -26
18z"/>
<path d="M2145 2220 c-3 -6 1 -7 9 -4 18 7 21 14 7 14 -6 0 -13 -4 -16 -10z"/>
<path d="M1970 2210 c-9 -6 -10 -10 -3 -10 6 0 15 5 18 10 8 12 4 12 -15 0z"/>
<path d="M2068 2213 c7 -3 16 -2 19 1 4 3 -2 6 -13 5 -11 0 -14 -3 -6 -6z"/>
<path d="M1460 2171 c0 -5 5 -13 10 -16 6 -3 10 -2 10 4 0 5 -4 13 -10 16 -5
3 -10 2 -10 -4z"/>
<path d="M1710 2170 c0 -5 5 -10 10 -10 6 0 10 5 10 10 0 6 -4 10 -10 10 -5 0
-10 -4 -10 -10z"/>
<path d="M2075 2050 c-3 -6 1 -7 9 -4 18 7 21 14 7 14 -6 0 -13 -4 -16 -10z"/>
<path d="M1610 2024 c0 -8 5 -12 10 -9 6 3 10 10 10 16 0 5 -4 9 -10 9 -5 0
-10 -7 -10 -16z"/>
<path d="M2392 1990 c0 -19 2 -27 5 -17 2 9 2 25 0 35 -3 9 -5 1 -5 -18z"/>
<path d="M2363 1943 c-3 -9 0 -21 8 -27 14 -10 17 -52 8 -100 -2 -10 1 -21 8
-23 7 -3 9 3 6 16 -4 15 1 23 17 29 20 7 21 10 7 15 -12 5 -17 19 -17 51 0 46
-24 72 -37 39z"/>
<path d="M1930 1940 c0 -5 5 -10 10 -10 6 0 10 5 10 10 0 6 -4 10 -10 10 -5 0
-10 -4 -10 -10z"/>
<path d="M1790 1920 c0 -5 7 -10 15 -10 8 0 15 5 15 10 0 6 -7 10 -15 10 -8 0
-15 -4 -15 -10z"/>
<path d="M2141 1894 c0 -11 3 -14 6 -6 3 7 2 16 -1 19 -3 4 -6 -2 -5 -13z"/>
<path d="M2410 1899 c0 -17 40 -31 56 -18 23 19 16 27 -21 27 -19 0 -35 -4
-35 -9z"/>
<path d="M2085 1890 c-3 -5 -1 -10 4 -10 6 0 11 5 11 10 0 6 -2 10 -4 10 -3 0
-8 -4 -11 -10z"/>
<path d="M2270 1865 c0 -8 7 -15 15 -15 8 0 15 4 15 9 0 5 -7 11 -15 15 -9 3
-15 0 -15 -9z"/>
<path d="M2493 1863 c-18 -9 -33 -23 -33 -30 0 -7 -4 -13 -9 -13 -13 0 5 -82
21 -94 21 -17 20 -66 -2 -66 -10 0 -21 -7 -24 -16 -5 -12 -14 -15 -37 -10 -30
6 -30 5 -27 -32 2 -20 9 -38 16 -38 7 -1 17 -2 23 -3 6 0 9 -8 5 -16 -3 -9 0
-15 10 -15 24 0 12 33 -16 47 l-25 13 26 0 c20 0 28 -6 33 -24 7 -29 -2 -56
-18 -56 -7 0 -17 -10 -22 -22 -6 -13 -9 -17 -7 -10 1 7 -2 10 -7 7 -6 -3 -10
-14 -10 -23 0 -15 -2 -15 -10 -2 -8 12 -10 9 -10 -12 0 -14 -6 -29 -12 -31 -7
-3 -3 -6 10 -6 26 -1 30 -26 6 -39 -13 -7 -14 -13 -5 -31 7 -11 16 -21 21 -21
19 0 10 -17 -16 -29 -15 -6 -24 -15 -20 -18 3 -4 12 -1 18 5 7 7 21 12 31 12
13 0 17 5 13 15 -3 8 -1 15 4 15 5 0 7 7 3 16 -5 14 -2 16 20 10 21 -5 27 -3
27 9 0 9 4 14 9 10 5 -3 13 0 17 6 5 8 8 8 14 0 4 -8 15 -3 33 13 23 21 27 22
27 8 1 -13 6 -10 24 11 15 19 28 26 40 21 21 -8 51 26 33 39 -7 4 3 7 23 6 19
-1 43 2 52 6 10 4 23 5 30 2 8 -3 -1 -11 -19 -18 -18 -8 -33 -17 -33 -21 0
-13 38 -9 43 5 3 9 10 9 33 -3 16 -8 31 -15 34 -16 3 -1 16 3 30 9 14 5 32 10
40 11 17 1 27 36 10 36 -7 0 -10 7 -6 18 4 10 -2 7 -13 -8 -15 -18 -23 -22
-31 -14 -8 8 -7 16 5 28 9 9 14 22 12 29 -4 9 -6 9 -6 0 -2 -22 -31 -14 -31 7
0 12 -6 20 -12 19 -24 -3 -53 3 -40 8 6 2 12 12 12 20 0 9 -6 13 -14 10 -8 -3
-29 -2 -47 3 -36 11 -64 1 -33 -11 15 -6 12 -8 -13 -8 -26 -1 -31 2 -26 15 5
14 1 16 -23 11 -16 -3 -23 -4 -16 -1 6 3 12 19 12 35 0 20 5 29 16 29 13 0 13
2 2 15 -7 8 -19 21 -26 30 -24 29 -37 18 -34 -30 4 -39 1 -45 -15 -45 -14 0
-19 6 -17 23 1 12 3 22 4 22 1 0 3 10 6 23 2 13 0 21 -4 18 -5 -3 -9 1 -9 9 0
8 4 12 8 9 16 -10 19 17 5 38 l-16 22 0 -22 c0 -22 -10 -28 -23 -15 -4 3 0 17
8 30 9 13 11 23 5 23 -5 0 -10 -5 -10 -11 0 -5 -4 -8 -10 -4 -5 3 -7 12 -3 20
3 8 0 15 -6 15 -6 0 -11 5 -11 11 0 6 7 9 15 5 9 -3 15 0 15 9 0 18 -6 18 -47
-2z m19 -84 c13 -8 1 -29 -15 -29 -7 0 -12 12 -11 28 1 40 6 50 11 27 3 -11
10 -23 15 -26z m24 -48 c0 -13 -6 -17 -20 -13 -18 5 -18 6 -1 19 11 7 19 13
20 13 0 0 1 -8 1 -19z m-16 -31 c0 -5 -2 -10 -4 -10 -3 0 -8 5 -11 10 -3 6 -1
10 4 10 6 0 11 -4 11 -10z m20 -51 c0 -16 -4 -19 -17 -15 -9 4 -20 1 -25 -6
-5 -9 -8 -10 -8 -1 0 10 37 43 47 43 2 0 3 -9 3 -21z m47 -35 c-3 -3 -12 -4
-19 -1 -8 3 -5 6 6 6 11 1 17 -2 13 -5z m-42 -93 c-3 -6 -11 -11 -17 -11 -6 0
-6 6 2 15 14 17 26 13 15 -4z m260 0 c-3 -6 -14 -10 -23 -10 -15 1 -15 2 1 6
9 2 17 9 17 15 0 6 3 9 6 5 3 -3 3 -10 -1 -16z m-125 -32 c0 -5 -6 -9 -13 -9
-8 0 -14 6 -14 14 0 8 6 12 14 9 7 -3 13 -9 13 -14z m160 5 c0 -8 -4 -12 -10
-9 -5 3 -10 10 -10 16 0 5 5 9 10 9 6 0 10 -7 10 -16z m-270 -24 c0 -5 -4 -10
-10 -10 -5 0 -10 5 -10 10 0 6 5 10 10 10 6 0 10 -4 10 -10z m-130 -20 c0 -5
-2 -10 -4 -10 -3 0 -8 5 -11 10 -3 6 -1 10 4 10 6 0 11 -4 11 -10z m410 0 c0
-5 -2 -10 -4 -10 -3 0 -8 5 -11 10 -3 6 -1 10 4 10 6 0 11 -4 11 -10z m-440
-20 c0 -5 -5 -10 -11 -10 -5 0 -7 5 -4 10 3 6 8 10 11 10 2 0 4 -4 4 -10z m-3
-42 c-3 -8 -6 -5 -6 6 -1 11 2 17 5 13 3 -3 4 -12 1 -19z"/>
<path d="M2125 1860 c-3 -5 -1 -10 4 -10 6 0 11 5 11 10 0 6 -2 10 -4 10 -3 0
-8 -4 -11 -10z"/>
<path d="M2075 1840 c-3 -5 1 -10 9 -10 9 0 16 5 16 10 0 6 -4 10 -9 10 -6 0
-13 -4 -16 -10z"/>
<path d="M1800 1821 c0 -12 6 -21 15 -21 8 0 15 3 15 6 0 3 -7 12 -15 20 -13
14 -15 13 -15 -5z"/>
<path d="M1947 1793 c-4 -3 -7 -11 -7 -17 0 -6 5 -5 12 2 6 6 9 14 7 17 -3 3
-9 2 -12 -2z"/>
<path d="M2403 1778 c-4 -7 -6 -23 -4 -36 2 -18 -2 -22 -20 -20 -17 2 -24 -3
-26 -17 l-3 -20 9 20 c9 19 10 18 11 -5 1 -23 2 -23 10 -5 l8 20 8 -20 c4 -11
14 -26 21 -33 11 -11 13 -9 13 12 0 20 5 26 23 27 l22 0 -22 16 c-15 10 -23
26 -23 44 0 30 -13 38 -27 17z"/>
<path d="M1906 1765 c4 -8 10 -15 15 -15 4 0 6 7 3 15 -4 8 -10 15 -15 15 -4
0 -6 -7 -3 -15z"/>
<path d="M1850 1750 c0 -5 6 -10 14 -10 8 0 18 5 21 10 3 6 -3 10 -14 10 -12
0 -21 -4 -21 -10z"/>
<path d="M2315 1740 c4 -11 2 -20 -4 -20 -6 0 -11 -12 -11 -27 0 -37 17 -18
25 30 5 26 4 37 -5 37 -7 0 -9 -8 -5 -20z"/>
<path d="M2971 1742 c0 -7 -5 -10 -11 -7 -15 9 -12 -4 4 -20 7 -8 17 -11 21
-7 3 4 13 -2 22 -13 15 -20 15 -20 8 3 -3 12 -2 22 4 22 5 0 12 -8 15 -17 4
-14 4 -13 3 2 -2 15 -9 19 -29 17 -18 -2 -28 3 -31 15 -3 10 -5 12 -6 5z"/>
<path d="M2660 1730 c0 -5 7 -10 16 -10 8 0 12 5 9 10 -3 6 -10 10 -16 10 -5
0 -9 -4 -9 -10z"/>
<path d="M4511 1709 c-1 -21 19 -46 45 -53 18 -6 22 -3 20 18 0 13 -4 22 -8
19 -5 -2 -8 3 -8 11 0 9 -7 16 -15 16 -9 0 -12 -6 -9 -15 4 -8 10 -15 15 -15
5 0 9 -5 9 -10 0 -15 -39 11 -44 30 -3 13 -4 13 -5 -1z"/>
<path d="M2181 1670 c0 -33 1 -34 10 -11 6 16 6 28 -1 35 -7 7 -10 -1 -9 -24z"/>
<path d="M2845 1690 c3 -5 14 -10 23 -10 15 0 15 2 2 10 -20 13 -33 13 -25 0z"/>
<path d="M2896 1673 c-6 -14 -5 -15 5 -6 7 7 10 15 7 18 -3 3 -9 -2 -12 -12z"/>
<path d="M2321 1654 c0 -11 3 -14 6 -6 3 7 2 16 -1 19 -3 4 -6 -2 -5 -13z"/>
<path d="M2840 1660 c0 -5 6 -10 14 -10 7 0 19 -7 26 -15 10 -12 10 -18 0 -30
-20 -24 -6 -27 18 -4 23 21 21 39 -3 39 -7 0 -15 7 -19 15 -6 17 -36 21 -36 5z"/>
<path d="M2662 1640 c-11 -18 -10 -20 12 -20 19 0 23 4 19 20 -3 11 -8 20 -12
20 -3 0 -12 -9 -19 -20z"/>
<path d="M4594 1651 c4 -5 0 -11 -6 -14 -10 -3 -10 -7 1 -20 7 -9 11 -24 7
-32 -3 -8 -1 -15 4 -15 5 0 9 20 8 45 -1 25 -6 45 -11 45 -4 0 -6 -4 -3 -9z"/>
<path d="M3020 1646 c0 -2 7 -6 15 -10 8 -3 15 -1 15 4 0 6 -7 10 -15 10 -8 0
-15 -2 -15 -4z"/>
<path d="M3160 1640 c0 -5 5 -10 11 -10 5 0 7 5 4 10 -3 6 -8 10 -11 10 -2 0
-4 -4 -4 -10z"/>
<path d="M2313 1622 c-7 -4 -9 -13 -4 -21 6 -9 10 -7 14 8 3 12 4 21 4 21 -1
0 -7 -4 -14 -8z"/>
<path d="M2940 1605 c7 -9 15 -13 17 -11 7 7 -7 26 -19 26 -6 0 -6 -6 2 -15z"/>
<path d="M3115 1600 c-3 -5 -1 -10 4 -10 6 0 11 5 11 10 0 6 -2 10 -4 10 -3 0
-8 -4 -11 -10z"/>
<path d="M4555 1590 c3 -5 10 -10 16 -10 5 0 9 5 9 10 0 6 -7 10 -16 10 -8 0
-12 -4 -9 -10z"/>
<path d="M4497 1563 c-10 -10 -8 -33 2 -33 6 0 9 9 8 20 -1 23 -1 22 -10 13z"/>
<path d="M4413 1545 c-7 -8 -13 -20 -13 -26 0 -7 8 -3 18 8 9 11 24 22 32 26
11 4 9 6 -5 6 -11 0 -26 -6 -32 -14z"/>
<path d="M2365 1519 c7 -21 5 -21 -41 -16 l-49 6 42 -11 c47 -12 77 1 66 28
-8 23 -25 16 -18 -7z"/>
<path d="M2295 1481 c-6 -11 13 -26 22 -17 4 3 1 6 -6 6 -7 0 -9 5 -6 10 3 6
4 10 1 10 -3 0 -7 -4 -11 -9z"/>
<path d="M3426 1463 c-6 -14 -5 -15 5 -6 7 7 10 15 7 18 -3 3 -9 -2 -12 -12z"/>
<path d="M2288 1443 c6 -2 18 -2 25 0 6 3 1 5 -13 5 -14 0 -19 -2 -12 -5z"/>
<path d="M3534 1425 c8 -8 18 -15 22 -15 3 0 1 7 -6 15 -7 8 -17 15 -22 15 -5
0 -3 -7 6 -15z"/>
<path d="M2310 1420 c0 -5 5 -10 11 -10 5 0 7 5 4 10 -3 6 -8 10 -11 10 -2 0
-4 -4 -4 -10z"/>
<path d="M2085 1390 c4 -6 11 -8 16 -5 14 9 11 15 -7 15 -8 0 -12 -5 -9 -10z"/>
<path d="M1785 1360 c3 -5 11 -10 16 -10 6 0 7 5 4 10 -3 6 -11 10 -16 10 -6
0 -7 -4 -4 -10z"/>
<path d="M3525 1340 c3 -5 8 -10 11 -10 2 0 4 5 4 10 0 6 -5 10 -11 10 -5 0
-7 -4 -4 -10z"/>
<path d="M2230 1324 c0 -8 5 -12 10 -9 6 3 10 10 10 16 0 5 -4 9 -10 9 -5 0
-10 -7 -10 -16z"/>
<path d="M2267 1303 c-4 -3 -7 -11 -7 -17 0 -6 5 -5 12 2 6 6 9 14 7 17 -3 3
-9 2 -12 -2z"/>
<path d="M4580 1200 c0 -5 9 -10 20 -10 11 0 20 5 20 10 0 6 -9 10 -20 10 -11
0 -20 -4 -20 -10z"/>
<path d="M3615 1100 c-3 -5 -1 -10 4 -10 6 0 11 5 11 10 0 6 -2 10 -4 10 -3 0
-8 -4 -11 -10z"/>
<path d="M5000 2831 c0 -5 5 -13 10 -16 6 -3 10 -2 10 4 0 5 -4 13 -10 16 -5
3 -10 2 -10 -4z"/>
<path d="M5068 2793 c7 -3 16 -2 19 1 4 3 -2 6 -13 5 -11 0 -14 -3 -6 -6z"/>
<path d="M5155 2770 c-3 -5 3 -10 15 -10 12 0 18 5 15 10 -3 6 -10 10 -15 10
-5 0 -12 -4 -15 -10z"/>
<path d="M5007 2583 c-10 -9 -9 -23 2 -23 5 0 11 7 15 15 5 15 -5 20 -17 8z"/>
<path d="M5057 2451 c-9 -17 -12 -31 -8 -31 11 0 36 49 29 56 -3 3 -13 -9 -21
-25z"/>
<path d="M5010 2345 c0 -8 5 -15 10 -15 6 0 10 7 10 15 0 8 -4 15 -10 15 -5 0
-10 -7 -10 -15z"/>
<path d="M4965 2140 c-3 -5 -1 -10 4 -10 6 0 11 5 11 10 0 6 -2 10 -4 10 -3 0
-8 -4 -11 -10z"/>
<path d="M4700 2545 c0 -9 5 -15 11 -13 6 2 11 8 11 13 0 5 -5 11 -11 13 -6 2
-11 -4 -11 -13z"/>
<path d="M5087 1544 c-8 -8 1 -24 14 -24 5 0 9 7 9 15 0 15 -12 20 -23 9z"/>
<path d="M5050 1530 c0 -5 5 -10 10 -10 6 0 10 5 10 10 0 6 -4 10 -10 10 -5 0
-10 -4 -10 -10z"/>
<path d="M2020 970 c0 -5 5 -10 10 -10 6 0 10 5 10 10 0 6 -4 10 -10 10 -5 0
-10 -4 -10 -10z"/>
<path d="M2109 933 c-12 -15 -12 -16 5 -10 10 4 25 2 34 -5 14 -12 14 -11 1
10 -17 26 -22 27 -40 5z"/>
<path d="M2046 924 c-4 -10 -1 -14 6 -12 15 5 23 28 10 28 -5 0 -13 -7 -16
-16z"/>
<path d="M2033 879 c9 -6 15 -14 12 -20 -7 -10 8 -13 18 -2 10 9 -13 33 -32
33 -14 -1 -14 -2 2 -11z"/>
<path d="M3376 1047 c3 -9 -3 -17 -17 -20 -13 -4 -21 -8 -18 -11 3 -3 15 -3
27 1 23 6 30 27 12 38 -5 3 -7 0 -4 -8z"/>
<path d="M2340 1000 c0 -5 5 -10 11 -10 5 0 7 5 4 10 -3 6 -8 10 -11 10 -2 0
-4 -4 -4 -10z"/>
<path d="M2670 970 c0 -5 5 -10 10 -10 6 0 10 5 10 10 0 6 -4 10 -10 10 -5 0
-10 -4 -10 -10z"/>
<path d="M2695 900 c3 -5 8 -10 11 -10 2 0 4 5 4 10 0 6 -5 10 -11 10 -5 0 -7
-4 -4 -10z"/>
<path d="M3470 866 c0 -2 7 -6 15 -10 8 -3 15 -1 15 4 0 6 -7 10 -15 10 -8 0
-15 -2 -15 -4z"/>
<path d="M3305 721 c-7 -12 12 -24 25 -16 11 7 4 25 -10 25 -5 0 -11 -4 -15
-9z"/>
<path d="M2415 710 c-3 -5 1 -10 9 -10 9 0 16 5 16 10 0 6 -4 10 -9 10 -6 0
-13 -4 -16 -10z"/>
<path d="M2955 691 c-6 -11 9 -23 19 -14 9 9 7 23 -3 23 -6 0 -12 -4 -16 -9z"/>
<path d="M3388 683 c7 -3 16 -2 19 1 4 3 -2 6 -13 5 -11 0 -14 -3 -6 -6z"/>
<path d="M2845 610 c3 -5 11 -10 16 -10 6 0 7 5 4 10 -3 6 -11 10 -16 10 -6 0
-7 -4 -4 -10z"/>
<path d="M3811 934 c0 -11 3 -14 6 -6 3 7 2 16 -1 19 -3 4 -6 -2 -5 -13z"/>
<path d="M3831 874 c0 -11 3 -14 6 -6 3 7 2 16 -1 19 -3 4 -6 -2 -5 -13z"/>
<path d="M3830 810 c0 -5 5 -10 11 -10 5 0 7 5 4 10 -3 6 -8 10 -11 10 -2 0
-4 -4 -4 -10z"/>
</g>
</svg>
