<svg id="Layer_1" data-name="Layer 1" xmlns="http://www.w3.org/2000/svg" xmlns:xlink="http://www.w3.org/1999/xlink" viewBox="0 0 1115 627"><defs><style>.cls-1{fill:url(#linear-gradient);}.cls-2{fill:#feb50c;}.cls-3{fill:none;stroke:#ffa508;stroke-linejoin:round;}</style><linearGradient id="linear-gradient" x1="122" y1="-122" x2="993" y2="749" gradientUnits="userSpaceOnUse"><stop offset="0" stop-color="#feb50c"/><stop offset="1" stop-color="#ffd51b"/></linearGradient></defs><title>bg_AWSCloud</title><g id="Layer_2" data-name="Layer 2"><polyline class="cls-1" points="0 627 0 0 1115 0 1115 627"/></g><circle class="cls-2" cx="1041.01" cy="241.83" r="9.89"/><circle class="cls-2" cx="1012.99" cy="283.04" r="9.89"/><circle class="cls-2" cx="1063.32" cy="352.62" r="9.89"/><circle class="cls-2" cx="1047.15" cy="431.15" r="9.89"/><circle class="cls-2" cx="1019.62" cy="450.93" r="9.89"/><circle class="cls-2" cx="978.04" cy="455.04" r="9.89"/><circle class="cls-2" cx="923.66" cy="465.78" r="9.89"/><circle class="cls-2" cx="853.29" cy="438.81" r="9.89"/><circle class="cls-2" cx="774.95" cy="499.61" r="9.89"/><circle class="cls-2" cx="780.45" cy="534.5" r="9.89"/><circle class="cls-2" cx="866.94" cy="537.59" r="9.89"/><circle class="cls-2" cx="918.94" cy="598.28" r="9.89"/><circle class="cls-2" cx="995.75" cy="580.98" r="9.89"/><circle class="cls-2" cx="943.47" cy="524.35" r="9.89"/><circle class="cls-2" cx="1020.81" cy="505.82" r="9.89"/><circle class="cls-2" cx="1063.27" cy="571.09" r="9.89"/><circle class="cls-2" cx="1062.51" cy="293.96" r="5.47"/><circle class="cls-2" cx="997.63" cy="325.8" r="6.08"/><circle class="cls-2" cx="947.25" cy="314.99" r="6.08"/><circle class="cls-2" cx="981.37" cy="414.2" r="6.08"/><circle class="cls-2" cx="1092.35" cy="500.77" r="6.08"/><circle class="cls-2" cx="1109.81" cy="573.7" r="6.08"/><circle class="cls-2" cx="902.54" cy="473.47" r="6.08"/><circle class="cls-2" cx="788.26" cy="418.66" r="6.08"/><circle class="cls-2" cx="820.45" cy="502.54" r="6.08"/><circle class="cls-2" cx="804.97" cy="572.87" r="6.08"/><circle class="cls-2" cx="635.43" cy="527.7" r="6.08"/><circle class="cls-2" cx="569.54" cy="536.78" r="6.08"/><circle class="cls-2" cx="704.83" cy="504.69" r="6.08"/><circle class="cls-2" cx="531.57" cy="558.62" r="6.08"/><circle class="cls-2" cx="534.28" cy="590.28" r="6.08"/><circle class="cls-2" cx="697.01" cy="562.43" r="9.89"/><path class="cls-2" d="M741.23,627a9.89,9.89,0,1,1,15.9,0"/><circle class="cls-2" cx="655.12" cy="486.57" r="9.89"/><circle class="cls-2" cx="570.96" cy="582.21" r="9.89"/><circle class="cls-2" cx="525.48" cy="609.98" r="9.89"/><circle class="cls-2" cx="837.34" cy="565" r="11.91"/><circle class="cls-2" cx="940.74" cy="420.29" r="11.91"/><circle class="cls-2" cx="940.74" cy="386.09" r="9.89"/><circle class="cls-2" cx="863.13" cy="596.95" r="6.08"/><path class="cls-2" d="M537.13,627a6.08,6.08,0,0,1,12.16,0"/><polyline class="cls-3" points="1115 215.57 1041.01 241.83 1012.99 283.04 1063.32 352.62 1115 367.77"/><polyline class="cls-3" points="877.49 627 863.13 596.95 866.94 537.59 837.34 565 804.98 572.87 780.45 534.5 774.95 499.61 820.45 502.54 853.29 438.81 947.25 314.99 940.74 386.09 1063.32 352.62 981.51 414.68 997.63 325.8 1062.51 293.96 1115 292.18"/><polyline class="cls-3" points="1018.98 627 918.94 598.28 943.47 524.35 995.75 580.98 939.38 627"/><polyline class="cls-3" points="1115 455.89 1047.15 431.14 1063.27 571.09 1109.81 573.7 1115 562.75"/><polyline class="cls-3" points="676.35 627 697.01 562.43 704.83 504.69 788.26 418.66 853.29 438.81 902.39 474.34 923.66 465.78 940.74 420.29 978.04 455.04 1019.62 450.93 1020.81 505.81 1092.36 500.77 1114.88 506.85"/><polyline class="cls-3" points="608.36 627 635.43 527.7 531.57 558.62 534.28 590.28 569.54 536.78 655.12 486.56 697.01 562.43 749.18 621.12 760.29 627"/><polyline class="cls-3" points="476 591.77 525.49 609.98 570.96 582.21 543.21 627"/><polyline class="cls-3" points="524.78 627 525.49 609.98 531.98 627"/></svg>