<?xml version="1.0" encoding="utf-8"?>
<!-- Generator: Adobe Illustrator 21.1.0, SVG Export Plug-In . SVG Version: 6.00 Build 0)  -->
<svg version="1.1" id="Layer_1" xmlns="http://www.w3.org/2000/svg" xmlns:xlink="http://www.w3.org/1999/xlink" x="0px" y="0px"
	 viewBox="0 0 574 430" style="enable-background:new 0 0 574 430;" xml:space="preserve">
<style type="text/css">
	.st0{fill:url(#SVGID_1_);}
	.st1{fill:#FEB50C;}
	.st2{fill:none;stroke:#FFA508;stroke-width:0.7486;stroke-linejoin:round;}
</style>
<title>bg</title>
<g id="Layer_2">
	
		<linearGradient id="SVGID_1_" gradientUnits="userSpaceOnUse" x1="36" y1="178" x2="538" y2="680" gradientTransform="matrix(1 0 0 1 0 -214)">
		<stop  offset="0" style="stop-color:#FFD300"/>
		<stop  offset="0.28" style="stop-color:#FFD505"/>
		<stop  offset="0.59" style="stop-color:#FDDB12"/>
		<stop  offset="0.92" style="stop-color:#FCE528"/>
		<stop  offset="1" style="stop-color:#FBE82F"/>
	</linearGradient>
	<polyline class="st0" points="0,430 0,0 574,0 574,430 	"/>
</g>
<g>
	<circle class="st1" cx="518.2" cy="142.9" r="7.4"/>
	<circle class="st1" cx="497.3" cy="173.6" r="7.4"/>
	<circle class="st1" cx="534.8" cy="225.5" r="7.4"/>
	<circle class="st1" cx="522.8" cy="284" r="7.4"/>
	<circle class="st1" cx="502.2" cy="298.8" r="7.4"/>
	<circle class="st1" cx="471.2" cy="301.8" r="7.4"/>
	<circle class="st1" cx="430.7" cy="309.8" r="7.4"/>
	<circle class="st1" cx="378.2" cy="289.7" r="7.4"/>
	<circle class="st1" cx="319.8" cy="335" r="7.4"/>
	<circle class="st1" cx="324" cy="361" r="7.4"/>
	<circle class="st1" cx="388.4" cy="363.4" r="7.4"/>
	<circle class="st1" cx="427.2" cy="408.6" r="7.4"/>
	<circle class="st1" cx="484.4" cy="395.7" r="7.4"/>
	<circle class="st1" cx="445.5" cy="353.5" r="7.4"/>
	<circle class="st1" cx="503.1" cy="339.7" r="7.4"/>
	<circle class="st1" cx="534.8" cy="388.3" r="7.4"/>
	<circle class="st1" cx="534.2" cy="181.7" r="4.1"/>
	<circle class="st1" cx="485.8" cy="205.5" r="4.5"/>
	<circle class="st1" cx="448.3" cy="197.4" r="4.5"/>
	<circle class="st1" cx="473.7" cy="271.4" r="4.5"/>
	<circle class="st1" cx="556.4" cy="335.9" r="4.5"/>
	<circle class="st1" cx="569.5" cy="390.3" r="4.5"/>
	<circle class="st1" cx="415" cy="315.6" r="4.5"/>
	<circle class="st1" cx="329.8" cy="274.7" r="4.5"/>
	<circle class="st1" cx="353.8" cy="337.2" r="4.5"/>
	<circle class="st1" cx="342.2" cy="389.6" r="4.5"/>
	<circle class="st1" cx="215.8" cy="356" r="4.5"/>
	<circle class="st1" cx="166.7" cy="362.7" r="4.5"/>
	<circle class="st1" cx="267.6" cy="338.8" r="4.5"/>
	<circle class="st1" cx="138.4" cy="379" r="4.5"/>
	<circle class="st1" cx="140.4" cy="402.6" r="4.5"/>
	<circle class="st1" cx="261.7" cy="381.9" r="7.4"/>
	<path class="st1" d="M294.7,430c-2.4-3.3-1.7-7.9,1.5-10.3c3.3-2.4,7.9-1.7,10.3,1.5c1.9,2.6,1.9,6.2,0,8.8"/>
	<circle class="st1" cx="230.5" cy="325.3" r="7.4"/>
	<circle class="st1" cx="167.8" cy="396.6" r="7.4"/>
	<circle class="st1" cx="133.9" cy="417.3" r="7.4"/>
	<circle class="st1" cx="366.4" cy="383.8" r="8.9"/>
	<circle class="st1" cx="443.4" cy="275.9" r="8.9"/>
	<circle class="st1" cx="443.4" cy="250.4" r="7.4"/>
	<circle class="st1" cx="385.6" cy="407.6" r="4.5"/>
	<path class="st1" d="M142.6,430c0-2.5,2-4.5,4.5-4.5c2.5,0,4.5,2,4.5,4.5"/>
	<polyline class="st2" points="573.3,123.3 518.2,142.9 497.3,173.6 534.8,225.5 573.3,236.8 	"/>
	<polyline class="st2" points="396.3,430 385.6,407.6 388.4,363.4 366.4,383.8 342.2,389.6 324,361 319.8,335 353.8,337.2 
		378.2,289.7 448.3,197.4 443.4,250.4 534.8,225.5 473.8,271.7 485.8,205.5 534.2,181.7 573.3,180.4 	"/>
	<polyline class="st2" points="501.8,430 427.2,408.6 445.5,353.5 484.4,395.7 442.4,430 	"/>
	<polyline class="st2" points="573.3,302.5 522.8,284 534.8,388.3 569.5,390.3 573.3,382.1 	"/>
	<polyline class="st2" points="246.4,430 261.7,381.9 267.6,338.8 329.8,274.7 378.2,289.7 414.8,316.2 430.7,309.8 443.4,275.9 
		471.2,301.8 502.2,298.8 503.1,339.7 556.5,335.9 573.3,340.4 	"/>
	<polyline class="st2" points="195.7,430 215.8,356 138.4,379 140.4,402.6 166.7,362.7 230.5,325.3 261.7,381.9 300.6,425.6 
		308.9,430 	"/>
	<polyline class="st2" points="97,403.7 133.9,417.3 167.8,396.6 147.1,430 	"/>
	<polyline class="st2" points="133.4,430 133.9,417.3 138.7,430 	"/>
</g>
</svg>
