<svg width="595.3" height="270" xmlns="http://www.w3.org/2000/svg">
 <style type="text/css">.st0{fill-rule:evenodd;clip-rule:evenodd;fill:#FBE82F;}
	.st1{fill:#005A9F;}</style>

 <g>
  <title>background</title>
  <rect fill="none" id="canvas_background" height="272" width="597.3" y="-1" x="-1"/>
 </g>
 <g>
  <title>Layer 1</title>
  <g id="svg_1">
   <polygon id="svg_2" points="25,62.899993896484375 571.5,62.899993896484375 571.5,218 25,218 25,62.899993896484375 " class="st0"/>
   <g id="svg_3">
    <path id="svg_4" d="m259.9,132.2c0,-4.4 3,-6.8 8.1,-6.8l21.3,0l0,-9.8l-23.2,0c-19.1,0 -23.8,7.7 -23.8,17.7c0,19 31.6,17.7 31.6,29.2c0,4.3 -2.6,7.3 -7.9,7.3l-20.6,0l-18.4,-54.2l-21.8,0l-19.3,56.4l-11.9,-23.3c9.3,-1.5 12.9,-6.8 13,-16.4c0,-10.9 -7.2,-16.7 -18.5,-16.7l-33,0l0,63.7l16.5,0l0,-53.9l9.9,0c5.3,0 8.6,3.4 8.6,9.7c0,5.3 -3.2,9.7 -8.2,9.4l-6.8,0.1l17.8,34.7l26.3,0l4.5,-14.1l22.5,0l4.4,14.1l36.3,0c12,0 24.1,-1.4 24.1,-17.8c0,-20.1 -31.5,-17.2 -31.5,-29.3zm-52.4,23.9l7.5,-27.5l0.2,0l8,27.5l-15.7,0z" class="st1"/>
    <path id="svg_5" d="m111.2,139.1l0,-0.2c10.9,-1.7 16.4,-8.1 16.4,-17.1c0,-16.6 -12.7,-20.1 -28,-20.1l-35.8,0l0,77.7l35.6,0c8.5,0 29.8,-0.8 29.8,-20.5c0,-10.8 -3.8,-18.2 -18,-19.8zm-27.3,-25.4c0,0 12.5,0 12.5,0c6.7,0.1 11.5,4.3 11.5,9.9c0,7.5 -6.2,9.9 -10.5,9.9l-13.5,0.1l0,-19.9zm12.6,53.8c-0.5,0 -12.5,0 -12.5,0l0,-21.9c0,0 12.2,-0.1 12.5,-0.1c9.5,0.2 12.5,4.4 12.5,11.1c0,9.8 -7.9,10.8 -12.5,10.9z" class="st1"/>
    <path id="svg_6" d="m511.3,115.6l-29.9,0l0,63.7l16.6,0l0,-25.9l12.3,0c19.5,0 22.1,-11.5 22.1,-18.7c0,-11.7 -6,-19.1 -21.1,-19.1zm-4.1,28.1l-9.2,0l0,-18.2c0,0 8.6,0 8.8,0c7.1,0.2 8.8,4.5 8.8,9.6c0,4.2 -3.4,8.6 -8.4,8.6z" class="st1"/>
    <rect id="svg_7" height="63.7" width="16.5" class="st1" y="115.6" x="297.5"/>
    <path id="svg_8" d="m436,115.6l-21.9,63.7l16.3,0l4.5,-14.1l22.6,0l4.4,14.1l17.4,0l-21.4,-63.7l-21.9,0zm2.3,39.9l7.5,-27.5l0.2,0l8,27.5l-15.7,0z" class="st1"/>
    <path id="svg_9" d="m415.7,158.3l-16.6,0c-0.2,5.2 0.1,13.2 -7.6,13.2c-9.5,0 -10.7,-7.2 -10.7,-23.8c0,-16.6 1.2,-23.8 10.7,-23.8c5,0 6.9,3.2 6.9,11.9l16.5,0c0.7,-13.9 -6.3,-21.6 -23.4,-21.6c-21,0 -26.1,9.4 -27.3,21.3c-0.4,3.9 -0.4,8 -0.4,12.2s0,8.3 0.4,12.1c1.2,12 6.3,21.4 27.3,21.4c13,0 21.1,-3.8 23.5,-14.9c0.4,-2.4 0.7,-5 0.7,-8z" class="st1"/>
    <polygon id="svg_10" points="341.70001220703125,169.79998779296875 341.70001220703125,115.60000610351562 325.1000061035156,115.60000610351562 325.1000061035156,179.29998779296875 364.5,179.29998779296875 364.5,169.79998779296875 " class="st1"/>
   </g>
  </g>
 </g>
</svg>